<svg width="343" height="224" viewBox="0 0 343 224" fill="none" xmlns="http://www.w3.org/2000/svg">
<g clip-path="url(#clip0_2_270)">
<path d="M316.468 108.164H38.3328C34.6047 108.164 31.5717 105.14 31.5717 101.422V6.7421C31.5717 3.02449 34.6047 0 38.3328 0H316.468C320.196 0 323.229 3.02449 323.229 6.7421V101.422C323.229 105.14 320.196 108.164 316.468 108.164ZM38.3328 0.803808C35.0492 0.803808 32.3777 3.4678 32.3777 6.7421V101.422C32.3777 104.696 35.0492 107.36 38.3328 107.36H316.468C319.751 107.36 322.423 104.696 322.423 101.422V6.7421C322.423 3.4678 319.751 0.803808 316.468 0.803808H38.3328Z" fill="#3F3D56"/>
<path d="M343 221.271H0V221.948H343V221.271Z" fill="#E6E6E6"/>
<path d="M343 186.707H0V187.384H343V186.707Z" fill="#E6E6E6"/>
<path d="M156.315 111.646C156.561 114.732 158.358 117.108 160.328 116.951C162.297 116.794 163.694 114.166 163.447 111.078C163.366 109.843 162.989 108.646 162.348 107.586L161.139 94.5213L155.003 95.2179L156.846 108.024C156.381 109.171 156.199 110.413 156.315 111.646Z" fill="#FFB6B6"/>
<path d="M148.984 50.6935C148.984 50.6935 154.72 47.6655 157.629 52.1904C160.538 56.7152 162.545 105.652 162.545 105.652L154.483 106.51L152.955 72.0259L148.984 50.6935Z" fill="#E6E6E6"/>
<path d="M137.079 184.154L141.749 184.154L143.971 166.191L137.078 166.191L137.079 184.154Z" fill="#FFB6B6"/>
<path d="M153.08 184.049C153.225 184.293 153.302 185.081 153.302 185.365C153.302 186.238 152.592 186.946 151.717 186.946H137.254C136.657 186.946 136.172 186.463 136.172 185.867V185.267C136.172 185.267 135.457 183.462 136.93 181.238C136.93 181.238 138.761 182.98 141.496 180.252L142.303 178.794L148.143 183.053L151.379 183.45C152.088 183.537 152.715 183.437 153.08 184.049Z" fill="#2F2E41"/>
<path d="M164.105 183.383L168.629 182.23L166.324 164.278L159.645 165.979L164.105 183.383Z" fill="#FFB6B6"/>
<path d="M179.581 179.332C179.783 179.533 180.053 180.277 180.123 180.552C180.34 181.398 179.828 182.259 178.98 182.475L164.967 186.045C164.388 186.192 163.799 185.844 163.652 185.267L163.502 184.685C163.502 184.685 162.361 183.113 163.236 180.594C163.236 180.594 165.443 181.83 167.416 178.512L167.836 176.901L174.551 179.586L177.785 179.172C178.493 179.081 179.077 178.829 179.581 179.332Z" fill="#2F2E41"/>
<path d="M133.215 46.832L132.994 45.2296L135.626 38.82L142.857 38.0188L144.418 47.1949L133.215 46.832Z" fill="#FFB6B6"/>
<path opacity="0.1" d="M133.215 46.832L132.994 45.2296L135.626 38.82L142.857 38.0188L144.418 47.1949L133.215 46.832Z" fill="black"/>
<path d="M124.779 92.0994L121.565 100.913L123.976 105.72L136.028 175.424H144.04L142.455 113.732L160.935 175.424H168.865L162.488 133.762L157.721 95.3042L154.83 93.523L140.848 85.6899L124.779 92.0994Z" fill="#2F2E41"/>
<path d="M145.267 98.1084L140.447 98.9096L134.019 83.6869H148.481L145.267 98.1084Z" fill="#E6E6E6"/>
<path d="M154.909 94.1024L145.267 98.1084L142.053 90.8976L140.447 98.9096L123.574 93.4935L125.984 83.6869L123.574 51.6391L132.083 45.9826L133.215 45.2296L143.66 46.0307L144.576 46.5275L150.892 50.0367L152.498 76.4761L154.909 94.1024Z" fill="#2F2E41"/>
<path d="M144.576 46.5275L140.045 65.66L132.083 45.9826L133.216 45.2296L143.66 46.0307L144.576 46.5275Z" fill="#E6E6E6"/>
<path d="M136.831 45.2296L135.224 47.9892L136.831 48.9091L136.028 65.7098L139.241 70.0666L142.455 63.6273L140.045 48.9091L140.848 45.2296H136.831Z" fill="#2F2E41"/>
<path d="M139.241 43.6272C143.457 43.6272 146.874 40.2195 146.874 36.0158C146.874 31.8122 143.457 28.4045 139.241 28.4045C135.026 28.4045 131.609 31.8122 131.609 36.0158C131.609 40.2195 135.026 43.6272 139.241 43.6272Z" fill="#FFB6B6"/>
<path d="M134.363 36.6835L136.013 37.4012L136.732 33.0948C136.732 33.0948 139.611 31.6593 141.771 32.3771C143.93 33.0948 147.529 32.3771 147.529 32.3771C147.529 32.3771 147.529 25.1997 142.491 25.1997C137.452 25.1997 132.414 25.9174 132.414 28.0707C132.414 30.2239 130.255 32.3771 130.255 32.3771C130.255 32.3771 127.376 36.6835 130.255 39.5544C133.134 42.4254 134.573 42.4254 134.573 42.4254L134.363 36.6835Z" fill="#2F2E41"/>
<path d="M119.553 111.421C119.469 114.516 121.003 117.068 122.978 117.121C124.954 117.174 126.622 114.707 126.706 111.611C126.756 110.375 126.509 109.144 125.984 108.023L126.173 94.9036L119.997 94.9466L120.467 107.875C119.883 108.967 119.569 110.183 119.553 111.421Z" fill="#FFB6B6"/>
<path d="M127.193 50.0217C127.193 50.0217 121.971 48.4193 119.561 53.2265C117.15 58.0336 120.364 106.906 120.364 106.906H128.471L126.32 72.4551L127.193 50.0217Z" fill="#E6E6E6"/>
<path d="M327.533 141.072L308.057 135.127C307.626 134.995 307.174 134.947 306.725 134.985L208.02 143.362C206.613 143.481 206.259 145.374 207.529 145.991L210.691 147.527H210.607V221.056H213.586V148.933L223.495 153.747C224.253 154.116 225.099 154.266 225.938 154.181L226.992 154.075V221.056H229.972V153.775L306.315 146.085V221.056H309.294V145.785L321.956 144.51V221.056H324.936V144.21L327.246 143.977C328.867 143.814 329.091 141.547 327.533 141.072Z" fill="#3F3D56"/>
<path d="M236.675 143.071C238.537 143.071 266.095 139.728 266.095 139.728L270.192 145.299L241.516 150.869L236.675 143.071Z" fill="white"/>
<path d="M266.92 218.2L262.133 218.192L259.887 199.772L266.953 199.785L266.92 218.2Z" fill="#A0616A"/>
<path d="M250.517 218.064C250.367 218.314 250.287 219.122 250.287 219.413C250.285 220.308 251.011 221.035 251.909 221.036L266.736 221.062C267.349 221.063 267.846 220.569 267.847 219.958L267.848 219.343C267.848 219.343 268.585 217.494 267.078 215.211C267.078 215.211 265.198 216.993 262.399 214.192L261.574 212.696L255.58 217.052L252.261 217.454C251.535 217.542 250.891 217.438 250.517 218.064Z" fill="#2F2E41"/>
<path d="M292.617 209.635L288.84 212.476L276.052 199.299L281.627 195.106L292.617 209.635Z" fill="#A0616A"/>
<path d="M279.611 219.285C279.643 219.571 280.063 220.255 280.237 220.485C280.771 221.191 281.778 221.332 282.486 220.799L294.184 211.999C294.667 211.636 294.763 210.951 294.399 210.469L294.032 209.983C294.032 209.983 293.506 208.088 290.954 207.185C290.954 207.185 290.539 209.708 286.657 209.166L285.113 208.478L282.995 215.476L280.62 217.767C280.101 218.268 279.532 218.568 279.611 219.285Z" fill="#2F2E41"/>
<path d="M282.611 114.438C282.611 118.841 279.032 122.41 274.617 122.41C270.201 122.41 266.622 118.841 266.622 114.438C266.622 110.035 270.201 106.466 274.617 106.466C279.032 106.466 282.611 110.035 282.611 114.438Z" fill="#A0616A"/>
<path d="M281.858 160.403C281.858 160.403 252.423 158.741 250.757 162.064C249.091 165.387 259.764 211.029 259.764 211.029L269.287 209.039L264.641 177.017C264.641 177.017 289.204 183.504 292.536 175.75C295.868 167.997 294.909 165.11 294.909 165.11L281.858 160.403Z" fill="#2F2E41"/>
<path d="M289.399 154.825C289.399 154.825 260.572 160.987 259.847 164.631C259.122 168.275 281.523 209.476 281.523 209.476L290.178 205.045L277.204 175.389C277.204 175.389 302.612 175.165 303.769 166.809C304.925 158.453 303.234 155.922 303.234 155.922L289.399 154.825Z" fill="#2F2E41"/>
<path d="M292.688 123.574H278.838L269.362 139.081C269.362 139.081 267.14 149.102 269.362 150.183C271.583 151.265 271.583 162.895 271.583 162.895L294.909 165.11C294.909 165.11 298.241 130.22 297.131 126.897C296.02 123.574 292.688 123.574 292.688 123.574Z" fill="#1F8F62"/>
<path d="M270.75 133.82L269.362 150.183L253.745 143.574L250.018 141.705C249.288 140.756 248.341 139.995 247.255 139.485C244.556 138.173 241.69 138.498 240.853 140.211C240.016 141.923 241.525 144.374 244.224 145.685C245.295 146.224 246.481 146.499 247.68 146.488L258.586 152.664L258.599 152.64L258.647 152.726L275.749 159.849L279.684 138.367L270.75 133.82Z" fill="#A0616A"/>
<path d="M269.084 115.544C269.084 115.544 260.754 116.652 264.086 109.452C264.086 109.452 263.578 105.549 266.053 105.286C268.529 105.022 271.861 100.591 271.861 100.591C271.861 100.591 279.501 96.7147 283.456 100.591C287.412 104.468 299.074 127.174 299.074 127.174L291.299 135.481C291.299 135.481 286.625 123.228 281.187 124.647C275.749 126.067 270.75 130.299 270.75 130.299C270.75 130.299 265.232 127.545 267.713 125.144C270.195 122.744 269.084 115.544 269.084 115.544Z" fill="#2F2E41"/>
<path d="M280.192 127.728C280.192 127.728 276.304 122.744 273.527 126.62C270.75 130.497 268.529 135.481 268.529 135.481L279.636 139.358L280.192 127.728Z" fill="#1F8F62"/>
<path d="M322.365 219.954L309.46 179.052L309.462 179.052H309.492L309.44 178.985L309.439 178.983L308.519 176.07L308.52 176.07C309.92 174.866 310.873 173.147 311.063 171.168L305.164 138.815C305.57 134.567 302.304 130.853 298.025 130.701L284.716 130.667C280.932 130.534 277.655 133.259 277.104 136.995L276.809 138.978L272.732 166.641C272.583 167.636 272.642 168.617 272.877 169.534L269.942 169.916L269.052 170.035L265.533 170.492L265.522 170.496L265.082 170.551H264.606V182.435H264.635V220.417C264.635 220.662 264.836 220.863 265.082 220.863C265.332 220.863 265.533 220.662 265.533 220.417V182.435H270.754L275.964 220.373C275.998 220.596 276.187 220.759 276.411 220.759C276.43 220.759 276.452 220.759 276.47 220.755C276.716 220.722 276.888 220.495 276.854 220.25L271.663 182.435H296.715C299.202 182.435 301.507 181.648 303.384 180.3L313.317 220.303C313.368 220.506 313.551 220.64 313.751 220.64C313.788 220.64 313.825 220.636 313.862 220.626C314.102 220.565 314.247 220.322 314.186 220.083L304.157 179.692C304.291 179.581 304.424 179.463 304.55 179.341L308.537 179.107L321.509 220.222C321.57 220.413 321.746 220.536 321.937 220.536C321.982 220.536 322.027 220.529 322.072 220.515C322.308 220.441 322.439 220.189 322.365 219.954ZM307.667 176.705C307.701 176.686 307.73 176.664 307.76 176.645L307.856 176.949L307.667 176.705Z" fill="#E6E6E6"/>
<path d="M69.1476 150.624L77.8327 145.116L81.3636 147.24L69.1476 161.237V150.624Z" fill="#FFB6B6"/>
<path d="M57.2709 129.306C57.2709 129.306 51.5022 130.659 54.2169 138.442C56.9315 146.225 65.7542 162.467 68.4689 161.452C71.1836 160.437 71.5229 150.285 71.5229 150.285C71.5229 150.285 71.1836 150.624 69.8263 149.27C68.4689 147.916 68.4689 148.535 68.4689 147.041C68.4689 145.548 67.3587 144.441 67.3587 144.441L66.0936 141.826C66.0936 141.826 66.0936 129.644 61.0036 128.967C55.9135 128.29 57.2709 129.306 57.2709 129.306Z" fill="#E6E6E6"/>
<path d="M84.2224 146.876C86.4752 144.629 87.1735 141.683 85.7821 140.296C84.3906 138.908 81.4364 139.605 79.1836 141.851C76.9308 144.098 76.2325 147.044 77.6239 148.431C79.0154 149.819 81.9696 149.122 84.2224 146.876Z" fill="#FFB6B6"/>
<path d="M34.8018 174.141L40.7281 183.922L75.2642 181.885L66.0682 170.065L34.8018 174.141Z" fill="#E6E6E6"/>
<path d="M45.1212 219.89C44.92 219.89 44.7448 219.742 44.7167 219.537L34.3968 144.379C34.3661 144.155 34.5226 143.95 34.7462 143.919C34.9697 143.887 35.1759 144.045 35.2066 144.268L45.5266 219.427C45.5572 219.65 45.4008 219.855 45.1771 219.886C45.1583 219.888 45.1396 219.89 45.1212 219.89Z" fill="#E6E6E6"/>
<path d="M34.8017 219.985C34.5759 219.985 34.3929 219.803 34.3929 219.578V144.338C34.3929 144.113 34.5759 143.93 34.8017 143.93C35.0274 143.93 35.2104 144.113 35.2104 144.338V219.578C35.2104 219.803 35.0274 219.985 34.8017 219.985Z" fill="#E6E6E6"/>
<path d="M86.6058 219.686C86.4321 219.686 86.271 219.575 86.2161 219.401L61.7956 142C61.7278 141.786 61.8475 141.557 62.0628 141.489C62.278 141.422 62.5076 141.541 62.5753 141.755L86.9958 219.156C87.0635 219.371 86.9439 219.6 86.7286 219.667C86.6878 219.68 86.6464 219.686 86.6058 219.686Z" fill="#E6E6E6"/>
<path d="M79.1467 219.781C78.9642 219.781 78.7979 219.659 78.7508 219.474L61.7893 151.163C61.7337 150.945 61.8659 150.723 62.0847 150.667C62.3041 150.612 62.5259 150.744 62.5816 150.962L79.5431 219.273C79.5987 219.492 79.4665 219.713 79.2477 219.769C79.2139 219.777 79.18 219.781 79.1467 219.781Z" fill="#E6E6E6"/>
<path d="M34.8018 145.536L63.105 145.102L68.3161 174.752H35.2105L34.8018 145.536Z" fill="#E6E6E6"/>
<path d="M78.2968 189.135L71.1638 201.657L79.4457 203.476L82.8986 194.569L78.2968 189.135Z" fill="#FFB6B6"/>
<path d="M73.7258 199.293C73.7258 199.293 73.4487 197.251 71.8192 197.899C70.1897 198.547 65.4869 200.956 65.4869 200.956C65.4869 200.956 77.7529 220.83 80.0807 219.904C82.4086 218.978 79.6219 213.36 79.6219 213.36L80.237 203.43L73.7258 199.293Z" fill="#2F2E41"/>
<path d="M46.7514 164.835C46.7514 164.835 44.2064 176.51 52.0111 180.57C59.8158 184.631 86.4536 174.648 86.4536 174.648L74.2375 192.901L82.7209 196.305C82.7209 196.305 102.063 170.926 100.706 166.866C99.3483 162.805 90.1863 162.467 90.1863 162.467L69.4868 163.482L64.0575 161.79L46.7514 164.835Z" fill="#2F2E41"/>
<path d="M67.7444 194.693L56.5308 203.768L63.5814 208.467L70.0477 201.424L67.7444 194.693Z" fill="#FFB6B6"/>
<path d="M59.7797 202.496C59.7797 202.496 60.2668 200.493 58.5125 200.506C56.7583 200.518 51.499 201.055 51.499 201.055C51.499 201.055 55.6717 224.018 58.1777 224C60.6838 223.982 60.1383 217.738 60.1383 217.738L64.3349 208.712L59.7797 202.496Z" fill="#2F2E41"/>
<path d="M47.2286 160.613C47.2286 160.613 40.5981 170.563 46.386 177.177C52.1739 183.791 80.6282 184.159 80.6282 184.159L62.589 196.728L69.2488 202.976C69.2488 202.976 96.5257 186.356 96.7432 182.081C96.9606 177.807 88.5502 174.167 88.5502 174.167L68.8993 167.602L64.4596 164.056L47.2286 160.613Z" fill="#2F2E41"/>
<path d="M64.262 137.565C64.262 137.565 57.8146 135.197 54.7606 135.197C54.4688 135.197 54.1803 135.231 53.8919 135.292C51.9373 135.704 50.1389 137.379 49.277 138.293C48.941 138.652 48.7476 138.892 48.7476 138.892C48.7476 138.892 48.7679 138.658 48.8087 138.249C49.0089 136.097 49.7486 129.035 51.0754 124.514C51.5505 122.9 52.0968 121.611 52.7246 120.985C54.1871 119.523 54.8624 117.77 55.1746 116.464C55.4393 115.344 55.4393 114.556 55.4393 114.556L52.9655 113.493L52.5074 110.509C52.426 110.861 52.0493 111.547 50.7836 112.864C50.675 112.975 50.5562 113.07 50.4307 113.151C48.6051 114.295 44.8826 112.305 42.8771 111.053C43.7118 108.16 45.2253 105.514 47.9739 105.081C54.4213 104.066 54.4213 100.344 58.4933 104.404C58.8292 104.739 59.1685 105.061 59.5079 105.372C60.8109 107.856 61.286 111.185 61.4557 113.5C61.5778 115.121 61.5473 116.248 61.5473 116.248C61.5473 116.248 63.244 126.399 65.9586 128.429C68.6733 130.46 64.262 137.565 64.262 137.565Z" fill="#2F2E41"/>
<path d="M51.7066 121.323L47.1216 128.03L57.4753 130.798V121.323H51.7066Z" fill="#FFB6B6"/>
<path opacity="0.1" d="M51.7066 121.323L47.1216 128.03L57.4753 130.798V121.323H51.7066Z" fill="black"/>
<path d="M58.1192 127.783L48.2785 123.722C48.2785 123.722 35.0444 129.475 36.0624 140.641C37.0805 151.808 46.5818 171.095 46.5818 171.095L65.5846 162.974L63.5486 141.318L58.1192 127.783Z" fill="#E6E6E6"/>
<path d="M53.8999 124.317C58.6948 124.317 62.5818 120.441 62.5818 115.66C62.5818 110.879 58.6948 107.003 53.8999 107.003C49.105 107.003 45.218 110.879 45.218 115.66C45.218 120.441 49.105 124.317 53.8999 124.317Z" fill="#FFB6B6"/>
<path d="M65.6193 112.525C63.9226 114.217 62.5653 115.909 62.5653 115.909L61.8866 113.202C61.8866 113.202 61.7305 113.317 61.4557 113.5C60.38 114.231 57.4922 116.068 55.1746 116.464C54.143 116.64 53.2268 116.528 52.6296 115.909C51.3638 114.593 50.9872 113.906 50.9057 113.554L50.4476 116.539L47.9739 117.601C47.9739 117.601 47.9739 121.317 50.6886 124.03C50.8209 124.162 50.9499 124.325 51.0754 124.514C52.3717 126.463 53.3014 131.234 53.8919 135.292C54.4144 138.899 54.6656 141.937 54.6656 141.937C54.6656 141.937 52.0968 138.73 49.2769 138.293C49.1208 138.269 48.9647 138.252 48.8087 138.249C48.7577 138.242 48.7035 138.242 48.6526 138.242C45.5985 138.242 39.1512 140.611 39.1512 140.611C39.1512 140.611 34.7398 133.505 37.4545 131.475C40.1692 129.444 41.8659 119.293 41.8659 119.293C41.8659 119.293 41.7539 114.948 42.8771 111.053C43.7118 108.16 45.2253 105.514 47.9739 105.081C54.4213 104.066 54.4212 100.344 58.4933 104.404C58.8292 104.739 59.1685 105.061 59.5079 105.372C63.3016 108.851 67.1769 110.972 65.6193 112.525Z" fill="#2F2E41"/>
<path d="M27.5413 157.948H24.317V221.449H27.5413V157.948Z" fill="#3F3D56"/>
<path d="M105.731 157.948H102.507V221.449H105.731V157.948Z" fill="#3F3D56"/>
<path d="M85.1759 131.021H63.8148V152.322H85.1759V131.021Z" fill="#1F8F62"/>
<path d="M51.5022 153.669L60.1873 148.161L63.7183 150.285L51.5022 164.283V153.669Z" fill="#FFB6B6"/>
<path d="M39.6255 132.351C39.6255 132.351 33.8568 133.705 36.5715 141.487C39.2861 149.27 48.1089 165.512 50.8235 164.497C53.5382 163.482 53.8775 153.331 53.8775 153.331C53.8775 153.331 53.5382 153.669 52.1809 152.315C50.8235 150.962 50.8235 151.58 50.8235 150.087C50.8235 148.593 49.7133 147.486 49.7133 147.486L48.4482 144.871C48.4482 144.871 48.4482 132.689 43.3582 132.013C38.2681 131.336 39.6255 132.351 39.6255 132.351Z" fill="#E6E6E6"/>
<path d="M66.577 149.921C68.8299 147.675 69.5281 144.729 68.1367 143.341C66.7453 141.954 63.791 142.65 61.5382 144.897C59.2854 147.143 58.5871 150.089 59.9785 151.476C61.37 152.864 64.3242 152.168 66.577 149.921Z" fill="#FFB6B6"/>
<path d="M112.18 155.537H14.644V162.771H112.18V155.537Z" fill="#3F3D56"/>
<path d="M211.275 97.6627H196.87C195.728 97.6627 194.802 98.5858 194.802 99.7244V105.649C194.802 106.787 195.728 107.71 196.87 107.71H211.275C212.417 107.71 213.342 106.787 213.342 105.649V99.7244C213.342 98.5858 212.417 97.6627 211.275 97.6627Z" fill="#3F3D56"/>
<path d="M241.503 103.587H227.098C225.956 103.587 225.03 104.51 225.03 105.649V105.649C225.03 106.787 225.956 107.71 227.098 107.71H241.503C242.645 107.71 243.57 106.787 243.57 105.649C243.57 104.51 242.645 103.587 241.503 103.587Z" fill="#1F8F62"/>
</g>
<defs>
<clipPath id="clip0_2_270">
<rect width="343" height="224" fill="white"/>
</clipPath>
</defs>
</svg>
