<svg width="190" height="46" viewBox="0 0 190 46" fill="none" xmlns="http://www.w3.org/2000/svg">
<path d="M11.5 42.1667C10.4458 42.1667 9.54368 41.7916 8.79363 41.0416C8.04357 40.2915 7.6679 39.3888 7.66663 38.3333V7.66667C7.66663 6.6125 8.04229 5.71039 8.79363 4.96033C9.54496 4.21028 10.4471 3.83461 11.5 3.83333H34.5C35.5541 3.83333 36.4569 4.209 37.2082 4.96033C37.9595 5.71167 38.3346 6.61378 38.3333 7.66667V38.3333C38.3333 39.3875 37.9583 40.2903 37.2082 41.0416C36.4582 41.7929 35.5554 42.1679 34.5 42.1667H11.5ZM11.5 38.3333H34.5V7.66667H30.6666V19.4062C30.6666 19.7896 30.5069 20.0694 30.1875 20.2458C29.868 20.4221 29.5486 20.4138 29.2291 20.2208L26.8812 18.7833C26.5618 18.5917 26.234 18.4958 25.898 18.4958C25.5619 18.4958 25.2348 18.5917 24.9166 18.7833L22.5687 20.2208C22.2493 20.4125 21.9222 20.4208 21.5874 20.2458C21.2526 20.0707 21.0846 19.7909 21.0833 19.4062V7.66667H11.5V38.3333ZM21.5874 20.2458C21.2526 20.0707 21.0846 19.7909 21.0833 19.4062C21.082 19.7909 21.2513 20.0707 21.5874 20.2458Z" fill="#1F8F62"/>
<mask id="path-2-outside-1_6_4" maskUnits="userSpaceOnUse" x="45" y="16" width="144" height="20" fill="black">
<rect fill="white" x="45" y="16" width="144" height="20"/>
<path d="M46.2017 35V16.8182H52.3452C53.7715 16.8182 54.9375 17.0756 55.843 17.5906C56.7545 18.0996 57.4292 18.7891 57.8672 19.6591C58.3052 20.5291 58.5241 21.4998 58.5241 22.571C58.5241 23.6423 58.3052 24.6159 57.8672 25.4918C57.4351 26.3678 56.7663 27.0662 55.8608 27.587C54.9553 28.1019 53.7952 28.3594 52.3807 28.3594H47.9773V26.4062H52.3097C53.2862 26.4062 54.0704 26.2376 54.6623 25.9002C55.2541 25.5629 55.6832 25.1071 55.9496 24.533C56.2218 23.953 56.358 23.299 56.358 22.571C56.358 21.843 56.2218 21.192 55.9496 20.6179C55.6832 20.0438 55.2512 19.594 54.6534 19.2685C54.0556 18.937 53.2625 18.7713 52.2741 18.7713H48.4034V35H46.2017ZM67.18 35.2841C65.949 35.2841 64.8688 34.9911 63.9396 34.4052C63.0163 33.8192 62.2943 32.9995 61.7734 31.946C61.2585 30.8925 61.0011 29.6615 61.0011 28.2528C61.0011 26.8324 61.2585 25.5924 61.7734 24.533C62.2943 23.4736 63.0163 22.6509 63.9396 22.065C64.8688 21.479 65.949 21.1861 67.18 21.1861C68.4111 21.1861 69.4883 21.479 70.4116 22.065C71.3408 22.6509 72.0629 23.4736 72.5778 24.533C73.0986 25.5924 73.359 26.8324 73.359 28.2528C73.359 29.6615 73.0986 30.8925 72.5778 31.946C72.0629 32.9995 71.3408 33.8192 70.4116 34.4052C69.4883 34.9911 68.4111 35.2841 67.18 35.2841ZM67.18 33.402C68.1152 33.402 68.8846 33.1623 69.4883 32.6829C70.092 32.2035 70.5388 31.5732 70.8288 30.7919C71.1188 30.0107 71.2638 29.1643 71.2638 28.2528C71.2638 27.3414 71.1188 26.4921 70.8288 25.7049C70.5388 24.9177 70.092 24.2815 69.4883 23.7962C68.8846 23.3108 68.1152 23.0682 67.18 23.0682C66.2449 23.0682 65.4755 23.3108 64.8718 23.7962C64.2681 24.2815 63.8213 24.9177 63.5312 25.7049C63.2412 26.4921 63.0962 27.3414 63.0962 28.2528C63.0962 29.1643 63.2412 30.0107 63.5312 30.7919C63.8213 31.5732 64.2681 32.2035 64.8718 32.6829C65.4755 33.1623 66.2449 33.402 67.18 33.402ZM76.5573 35V21.3636H78.5814V23.4233H78.7235C78.972 22.7486 79.4218 22.2011 80.0729 21.7809C80.7239 21.3607 81.4578 21.1506 82.2746 21.1506C82.4285 21.1506 82.6208 21.1535 82.8517 21.1594C83.0825 21.1654 83.2571 21.1742 83.3754 21.1861V23.3168C83.3044 23.299 83.1417 23.2724 82.8872 23.2369C82.6386 23.1954 82.3752 23.1747 82.097 23.1747C81.4342 23.1747 80.8423 23.3138 80.3215 23.592C79.8066 23.8642 79.3982 24.243 79.0963 24.7283C78.8004 25.2077 78.6524 25.7552 78.6524 26.3707V35H76.5573ZM92.6439 21.3636V23.1392H85.5771V21.3636H92.6439ZM87.6368 18.0966H89.732V31.0938C89.732 31.6856 89.8178 32.1295 89.9894 32.4254C90.167 32.7154 90.3919 32.9107 90.6642 33.0114C90.9423 33.1061 91.2353 33.1534 91.5431 33.1534C91.7739 33.1534 91.9633 33.1416 92.1112 33.1179C92.2592 33.0883 92.3776 33.0646 92.4664 33.0469L92.8925 34.929C92.7504 34.9822 92.5522 35.0355 92.2977 35.0888C92.0432 35.148 91.7206 35.1776 91.33 35.1776C90.7381 35.1776 90.1581 35.0503 89.5899 34.7958C89.0277 34.5413 88.5601 34.1536 88.1872 33.6328C87.8203 33.112 87.6368 32.455 87.6368 31.6619V18.0966ZM99.8083 35.3196C98.9442 35.3196 98.16 35.1568 97.4557 34.8313C96.7514 34.4999 96.1921 34.0234 95.7778 33.402C95.3635 32.7746 95.1563 32.017 95.1563 31.1293C95.1563 30.348 95.3102 29.7147 95.618 29.2294C95.9258 28.7382 96.3371 28.3535 96.852 28.0753C97.3669 27.7971 97.9351 27.59 98.5566 27.4538C99.1839 27.3118 99.8142 27.1993 100.448 27.1165C101.276 27.0099 101.948 26.93 102.463 26.8768C102.984 26.8176 103.362 26.7199 103.599 26.5838C103.842 26.4477 103.963 26.2109 103.963 25.8736V25.8026C103.963 24.9266 103.723 24.246 103.244 23.7607C102.771 23.2753 102.051 23.0327 101.087 23.0327C100.086 23.0327 99.3023 23.2517 98.7341 23.6896C98.1659 24.1276 97.7664 24.5952 97.5356 25.0923L95.547 24.3821C95.9021 23.5535 96.3756 22.9084 96.9674 22.4467C97.5652 21.9792 98.2162 21.6536 98.9205 21.4702C99.6308 21.2808 100.329 21.1861 101.016 21.1861C101.454 21.1861 101.957 21.2393 102.525 21.3459C103.099 21.4465 103.652 21.6566 104.185 21.9762C104.724 22.2958 105.171 22.7782 105.526 23.4233C105.881 24.0684 106.058 24.9325 106.058 26.0156V35H103.963V33.1534H103.857C103.715 33.4493 103.478 33.766 103.146 34.1033C102.815 34.4407 102.374 34.7277 101.824 34.9645C101.273 35.2012 100.601 35.3196 99.8083 35.3196ZM100.128 33.4375C100.957 33.4375 101.655 33.2747 102.223 32.9492C102.797 32.6237 103.229 32.2035 103.519 31.6886C103.815 31.1737 103.963 30.6321 103.963 30.0639V28.1463C103.874 28.2528 103.679 28.3505 103.377 28.4393C103.081 28.5221 102.738 28.5961 102.347 28.6612C101.963 28.7204 101.587 28.7737 101.22 28.821C100.859 28.8625 100.566 28.898 100.341 28.9276C99.7965 28.9986 99.2875 29.114 98.814 29.2738C98.3464 29.4277 97.9677 29.6615 97.6776 29.9751C97.3936 30.2829 97.2515 30.7031 97.2515 31.2358C97.2515 31.9638 97.5208 32.5142 98.0594 32.8871C98.6039 33.254 99.2934 33.4375 100.128 33.4375ZM111.978 16.8182V35H109.882V16.8182H111.978ZM133.074 21.3636C132.967 20.464 132.535 19.7656 131.777 19.2685C131.02 18.7713 130.091 18.5227 128.99 18.5227C128.185 18.5227 127.481 18.6529 126.877 18.9134C126.279 19.1738 125.812 19.5318 125.474 19.9876C125.143 20.4433 124.977 20.9612 124.977 21.5412C124.977 22.0265 125.092 22.4438 125.323 22.793C125.56 23.1362 125.862 23.4233 126.229 23.6541C126.596 23.879 126.98 24.0655 127.383 24.2134C127.785 24.3555 128.155 24.4709 128.493 24.5597L130.339 25.0568C130.813 25.1811 131.339 25.3527 131.919 25.5717C132.505 25.7907 133.065 26.0896 133.597 26.4684C134.136 26.8413 134.58 27.3207 134.929 27.9066C135.278 28.4925 135.453 29.2116 135.453 30.0639C135.453 31.0464 135.195 31.9342 134.68 32.7273C134.171 33.5204 133.426 34.1507 132.443 34.6183C131.467 35.0858 130.28 35.3196 128.883 35.3196C127.581 35.3196 126.454 35.1095 125.501 34.6893C124.554 34.2691 123.808 33.6831 123.264 32.9315C122.725 32.1798 122.42 31.3068 122.349 30.3125H124.622C124.681 30.9991 124.912 31.5672 125.314 32.017C125.723 32.4609 126.238 32.7924 126.859 33.0114C127.486 33.2244 128.161 33.331 128.883 33.331C129.724 33.331 130.478 33.1948 131.147 32.9226C131.816 32.6444 132.346 32.2597 132.736 31.7685C133.127 31.2713 133.322 30.6913 133.322 30.0284C133.322 29.4247 133.153 28.9335 132.816 28.5547C132.479 28.1759 132.035 27.8681 131.484 27.6314C130.934 27.3946 130.339 27.1875 129.7 27.0099L127.463 26.3707C126.042 25.9624 124.918 25.3794 124.089 24.6218C123.261 23.8642 122.846 22.8729 122.846 21.6477C122.846 20.6297 123.122 19.742 123.672 18.9844C124.228 18.2209 124.974 17.629 125.909 17.2088C126.85 16.7827 127.901 16.5696 129.061 16.5696C130.233 16.5696 131.274 16.7797 132.186 17.1999C133.097 17.6142 133.819 18.1824 134.352 18.9045C134.891 19.6265 135.175 20.4463 135.204 21.3636H133.074ZM153.703 22.5H151.502C151.372 21.8667 151.144 21.3104 150.818 20.831C150.499 20.3516 150.108 19.9491 149.646 19.6236C149.191 19.2921 148.685 19.0436 148.128 18.8778C147.572 18.7121 146.992 18.6293 146.388 18.6293C145.287 18.6293 144.29 18.9074 143.396 19.4638C142.509 20.0201 141.801 20.8398 141.275 21.9229C140.754 23.006 140.493 24.3348 140.493 25.9091C140.493 27.4834 140.754 28.8121 141.275 29.8952C141.801 30.9783 142.509 31.7981 143.396 32.3544C144.29 32.9107 145.287 33.1889 146.388 33.1889C146.992 33.1889 147.572 33.1061 148.128 32.9403C148.685 32.7746 149.191 32.529 149.646 32.2035C150.108 31.872 150.499 31.4666 150.818 30.9872C151.144 30.5019 151.372 29.9455 151.502 29.3182H153.703C153.538 30.2474 153.236 31.079 152.798 31.8129C152.36 32.5468 151.815 33.1712 151.164 33.6861C150.513 34.1951 149.782 34.5827 148.972 34.8491C148.167 35.1154 147.306 35.2486 146.388 35.2486C144.837 35.2486 143.458 34.8698 142.251 34.1122C141.044 33.3546 140.094 32.2775 139.401 30.8807C138.709 29.4839 138.363 27.8267 138.363 25.9091C138.363 23.9915 138.709 22.3343 139.401 20.9375C140.094 19.5407 141.044 18.4635 142.251 17.706C143.458 16.9484 144.837 16.5696 146.388 16.5696C147.306 16.5696 148.167 16.7028 148.972 16.9691C149.782 17.2354 150.513 17.6261 151.164 18.141C151.815 18.65 152.36 19.2714 152.798 20.0053C153.236 20.7333 153.538 21.5649 153.703 22.5ZM171.892 22.5H169.69C169.56 21.8667 169.332 21.3104 169.007 20.831C168.687 20.3516 168.296 19.9491 167.835 19.6236C167.379 19.2921 166.873 19.0436 166.317 18.8778C165.76 18.7121 165.18 18.6293 164.577 18.6293C163.476 18.6293 162.478 18.9074 161.585 19.4638C160.697 20.0201 159.99 20.8398 159.463 21.9229C158.942 23.006 158.682 24.3348 158.682 25.9091C158.682 27.4834 158.942 28.8121 159.463 29.8952C159.99 30.9783 160.697 31.7981 161.585 32.3544C162.478 32.9107 163.476 33.1889 164.577 33.1889C165.18 33.1889 165.76 33.1061 166.317 32.9403C166.873 32.7746 167.379 32.529 167.835 32.2035C168.296 31.872 168.687 31.4666 169.007 30.9872C169.332 30.5019 169.56 29.9455 169.69 29.3182H171.892C171.726 30.2474 171.424 31.079 170.986 31.8129C170.548 32.5468 170.004 33.1712 169.353 33.6861C168.702 34.1951 167.971 34.5827 167.16 34.8491C166.355 35.1154 165.494 35.2486 164.577 35.2486C163.026 35.2486 161.647 34.8698 160.44 34.1122C159.232 33.3546 158.282 32.2775 157.59 30.8807C156.897 29.4839 156.551 27.8267 156.551 25.9091C156.551 23.9915 156.897 22.3343 157.59 20.9375C158.282 19.5407 159.232 18.4635 160.44 17.706C161.647 16.9484 163.026 16.5696 164.577 16.5696C165.494 16.5696 166.355 16.7028 167.16 16.9691C167.971 17.2354 168.702 17.6261 169.353 18.141C170.004 18.65 170.548 19.2714 170.986 20.0053C171.424 20.7333 171.726 21.5649 171.892 22.5ZM175.45 35V16.8182H181.593C183.02 16.8182 184.186 17.0756 185.091 17.5906C186.003 18.0996 186.677 18.7891 187.115 19.6591C187.553 20.5291 187.772 21.4998 187.772 22.571C187.772 23.6423 187.553 24.6159 187.115 25.4918C186.683 26.3678 186.014 27.0662 185.109 27.587C184.203 28.1019 183.043 28.3594 181.629 28.3594H177.225V26.4062H181.558C182.534 26.4062 183.318 26.2376 183.91 25.9002C184.502 25.5629 184.931 25.1071 185.198 24.533C185.47 23.953 185.606 23.299 185.606 22.571C185.606 21.843 185.47 21.192 185.198 20.6179C184.931 20.0438 184.499 19.594 183.901 19.2685C183.304 18.937 182.511 18.7713 181.522 18.7713H177.651V35H175.45Z"/>
</mask>
<path d="M46.2017 35V16.8182H52.3452C53.7715 16.8182 54.9375 17.0756 55.843 17.5906C56.7545 18.0996 57.4292 18.7891 57.8672 19.6591C58.3052 20.5291 58.5241 21.4998 58.5241 22.571C58.5241 23.6423 58.3052 24.6159 57.8672 25.4918C57.4351 26.3678 56.7663 27.0662 55.8608 27.587C54.9553 28.1019 53.7952 28.3594 52.3807 28.3594H47.9773V26.4062H52.3097C53.2862 26.4062 54.0704 26.2376 54.6623 25.9002C55.2541 25.5629 55.6832 25.1071 55.9496 24.533C56.2218 23.953 56.358 23.299 56.358 22.571C56.358 21.843 56.2218 21.192 55.9496 20.6179C55.6832 20.0438 55.2512 19.594 54.6534 19.2685C54.0556 18.937 53.2625 18.7713 52.2741 18.7713H48.4034V35H46.2017ZM67.18 35.2841C65.949 35.2841 64.8688 34.9911 63.9396 34.4052C63.0163 33.8192 62.2943 32.9995 61.7734 31.946C61.2585 30.8925 61.0011 29.6615 61.0011 28.2528C61.0011 26.8324 61.2585 25.5924 61.7734 24.533C62.2943 23.4736 63.0163 22.6509 63.9396 22.065C64.8688 21.479 65.949 21.1861 67.18 21.1861C68.4111 21.1861 69.4883 21.479 70.4116 22.065C71.3408 22.6509 72.0629 23.4736 72.5778 24.533C73.0986 25.5924 73.359 26.8324 73.359 28.2528C73.359 29.6615 73.0986 30.8925 72.5778 31.946C72.0629 32.9995 71.3408 33.8192 70.4116 34.4052C69.4883 34.9911 68.4111 35.2841 67.18 35.2841ZM67.18 33.402C68.1152 33.402 68.8846 33.1623 69.4883 32.6829C70.092 32.2035 70.5388 31.5732 70.8288 30.7919C71.1188 30.0107 71.2638 29.1643 71.2638 28.2528C71.2638 27.3414 71.1188 26.4921 70.8288 25.7049C70.5388 24.9177 70.092 24.2815 69.4883 23.7962C68.8846 23.3108 68.1152 23.0682 67.18 23.0682C66.2449 23.0682 65.4755 23.3108 64.8718 23.7962C64.2681 24.2815 63.8213 24.9177 63.5312 25.7049C63.2412 26.4921 63.0962 27.3414 63.0962 28.2528C63.0962 29.1643 63.2412 30.0107 63.5312 30.7919C63.8213 31.5732 64.2681 32.2035 64.8718 32.6829C65.4755 33.1623 66.2449 33.402 67.18 33.402ZM76.5573 35V21.3636H78.5814V23.4233H78.7235C78.972 22.7486 79.4218 22.2011 80.0729 21.7809C80.7239 21.3607 81.4578 21.1506 82.2746 21.1506C82.4285 21.1506 82.6208 21.1535 82.8517 21.1594C83.0825 21.1654 83.2571 21.1742 83.3754 21.1861V23.3168C83.3044 23.299 83.1417 23.2724 82.8872 23.2369C82.6386 23.1954 82.3752 23.1747 82.097 23.1747C81.4342 23.1747 80.8423 23.3138 80.3215 23.592C79.8066 23.8642 79.3982 24.243 79.0963 24.7283C78.8004 25.2077 78.6524 25.7552 78.6524 26.3707V35H76.5573ZM92.6439 21.3636V23.1392H85.5771V21.3636H92.6439ZM87.6368 18.0966H89.732V31.0938C89.732 31.6856 89.8178 32.1295 89.9894 32.4254C90.167 32.7154 90.3919 32.9107 90.6642 33.0114C90.9423 33.1061 91.2353 33.1534 91.5431 33.1534C91.7739 33.1534 91.9633 33.1416 92.1112 33.1179C92.2592 33.0883 92.3776 33.0646 92.4664 33.0469L92.8925 34.929C92.7504 34.9822 92.5522 35.0355 92.2977 35.0888C92.0432 35.148 91.7206 35.1776 91.33 35.1776C90.7381 35.1776 90.1581 35.0503 89.5899 34.7958C89.0277 34.5413 88.5601 34.1536 88.1872 33.6328C87.8203 33.112 87.6368 32.455 87.6368 31.6619V18.0966ZM99.8083 35.3196C98.9442 35.3196 98.16 35.1568 97.4557 34.8313C96.7514 34.4999 96.1921 34.0234 95.7778 33.402C95.3635 32.7746 95.1563 32.017 95.1563 31.1293C95.1563 30.348 95.3102 29.7147 95.618 29.2294C95.9258 28.7382 96.3371 28.3535 96.852 28.0753C97.3669 27.7971 97.9351 27.59 98.5566 27.4538C99.1839 27.3118 99.8142 27.1993 100.448 27.1165C101.276 27.0099 101.948 26.93 102.463 26.8768C102.984 26.8176 103.362 26.7199 103.599 26.5838C103.842 26.4477 103.963 26.2109 103.963 25.8736V25.8026C103.963 24.9266 103.723 24.246 103.244 23.7607C102.771 23.2753 102.051 23.0327 101.087 23.0327C100.086 23.0327 99.3023 23.2517 98.7341 23.6896C98.1659 24.1276 97.7664 24.5952 97.5356 25.0923L95.547 24.3821C95.9021 23.5535 96.3756 22.9084 96.9674 22.4467C97.5652 21.9792 98.2162 21.6536 98.9205 21.4702C99.6308 21.2808 100.329 21.1861 101.016 21.1861C101.454 21.1861 101.957 21.2393 102.525 21.3459C103.099 21.4465 103.652 21.6566 104.185 21.9762C104.724 22.2958 105.171 22.7782 105.526 23.4233C105.881 24.0684 106.058 24.9325 106.058 26.0156V35H103.963V33.1534H103.857C103.715 33.4493 103.478 33.766 103.146 34.1033C102.815 34.4407 102.374 34.7277 101.824 34.9645C101.273 35.2012 100.601 35.3196 99.8083 35.3196ZM100.128 33.4375C100.957 33.4375 101.655 33.2747 102.223 32.9492C102.797 32.6237 103.229 32.2035 103.519 31.6886C103.815 31.1737 103.963 30.6321 103.963 30.0639V28.1463C103.874 28.2528 103.679 28.3505 103.377 28.4393C103.081 28.5221 102.738 28.5961 102.347 28.6612C101.963 28.7204 101.587 28.7737 101.22 28.821C100.859 28.8625 100.566 28.898 100.341 28.9276C99.7965 28.9986 99.2875 29.114 98.814 29.2738C98.3464 29.4277 97.9677 29.6615 97.6776 29.9751C97.3936 30.2829 97.2515 30.7031 97.2515 31.2358C97.2515 31.9638 97.5208 32.5142 98.0594 32.8871C98.6039 33.254 99.2934 33.4375 100.128 33.4375ZM111.978 16.8182V35H109.882V16.8182H111.978ZM133.074 21.3636C132.967 20.464 132.535 19.7656 131.777 19.2685C131.02 18.7713 130.091 18.5227 128.99 18.5227C128.185 18.5227 127.481 18.6529 126.877 18.9134C126.279 19.1738 125.812 19.5318 125.474 19.9876C125.143 20.4433 124.977 20.9612 124.977 21.5412C124.977 22.0265 125.092 22.4438 125.323 22.793C125.56 23.1362 125.862 23.4233 126.229 23.6541C126.596 23.879 126.98 24.0655 127.383 24.2134C127.785 24.3555 128.155 24.4709 128.493 24.5597L130.339 25.0568C130.813 25.1811 131.339 25.3527 131.919 25.5717C132.505 25.7907 133.065 26.0896 133.597 26.4684C134.136 26.8413 134.58 27.3207 134.929 27.9066C135.278 28.4925 135.453 29.2116 135.453 30.0639C135.453 31.0464 135.195 31.9342 134.68 32.7273C134.171 33.5204 133.426 34.1507 132.443 34.6183C131.467 35.0858 130.28 35.3196 128.883 35.3196C127.581 35.3196 126.454 35.1095 125.501 34.6893C124.554 34.2691 123.808 33.6831 123.264 32.9315C122.725 32.1798 122.42 31.3068 122.349 30.3125H124.622C124.681 30.9991 124.912 31.5672 125.314 32.017C125.723 32.4609 126.238 32.7924 126.859 33.0114C127.486 33.2244 128.161 33.331 128.883 33.331C129.724 33.331 130.478 33.1948 131.147 32.9226C131.816 32.6444 132.346 32.2597 132.736 31.7685C133.127 31.2713 133.322 30.6913 133.322 30.0284C133.322 29.4247 133.153 28.9335 132.816 28.5547C132.479 28.1759 132.035 27.8681 131.484 27.6314C130.934 27.3946 130.339 27.1875 129.7 27.0099L127.463 26.3707C126.042 25.9624 124.918 25.3794 124.089 24.6218C123.261 23.8642 122.846 22.8729 122.846 21.6477C122.846 20.6297 123.122 19.742 123.672 18.9844C124.228 18.2209 124.974 17.629 125.909 17.2088C126.85 16.7827 127.901 16.5696 129.061 16.5696C130.233 16.5696 131.274 16.7797 132.186 17.1999C133.097 17.6142 133.819 18.1824 134.352 18.9045C134.891 19.6265 135.175 20.4463 135.204 21.3636H133.074ZM153.703 22.5H151.502C151.372 21.8667 151.144 21.3104 150.818 20.831C150.499 20.3516 150.108 19.9491 149.646 19.6236C149.191 19.2921 148.685 19.0436 148.128 18.8778C147.572 18.7121 146.992 18.6293 146.388 18.6293C145.287 18.6293 144.29 18.9074 143.396 19.4638C142.509 20.0201 141.801 20.8398 141.275 21.9229C140.754 23.006 140.493 24.3348 140.493 25.9091C140.493 27.4834 140.754 28.8121 141.275 29.8952C141.801 30.9783 142.509 31.7981 143.396 32.3544C144.29 32.9107 145.287 33.1889 146.388 33.1889C146.992 33.1889 147.572 33.1061 148.128 32.9403C148.685 32.7746 149.191 32.529 149.646 32.2035C150.108 31.872 150.499 31.4666 150.818 30.9872C151.144 30.5019 151.372 29.9455 151.502 29.3182H153.703C153.538 30.2474 153.236 31.079 152.798 31.8129C152.36 32.5468 151.815 33.1712 151.164 33.6861C150.513 34.1951 149.782 34.5827 148.972 34.8491C148.167 35.1154 147.306 35.2486 146.388 35.2486C144.837 35.2486 143.458 34.8698 142.251 34.1122C141.044 33.3546 140.094 32.2775 139.401 30.8807C138.709 29.4839 138.363 27.8267 138.363 25.9091C138.363 23.9915 138.709 22.3343 139.401 20.9375C140.094 19.5407 141.044 18.4635 142.251 17.706C143.458 16.9484 144.837 16.5696 146.388 16.5696C147.306 16.5696 148.167 16.7028 148.972 16.9691C149.782 17.2354 150.513 17.6261 151.164 18.141C151.815 18.65 152.36 19.2714 152.798 20.0053C153.236 20.7333 153.538 21.5649 153.703 22.5ZM171.892 22.5H169.69C169.56 21.8667 169.332 21.3104 169.007 20.831C168.687 20.3516 168.296 19.9491 167.835 19.6236C167.379 19.2921 166.873 19.0436 166.317 18.8778C165.76 18.7121 165.18 18.6293 164.577 18.6293C163.476 18.6293 162.478 18.9074 161.585 19.4638C160.697 20.0201 159.99 20.8398 159.463 21.9229C158.942 23.006 158.682 24.3348 158.682 25.9091C158.682 27.4834 158.942 28.8121 159.463 29.8952C159.99 30.9783 160.697 31.7981 161.585 32.3544C162.478 32.9107 163.476 33.1889 164.577 33.1889C165.18 33.1889 165.76 33.1061 166.317 32.9403C166.873 32.7746 167.379 32.529 167.835 32.2035C168.296 31.872 168.687 31.4666 169.007 30.9872C169.332 30.5019 169.56 29.9455 169.69 29.3182H171.892C171.726 30.2474 171.424 31.079 170.986 31.8129C170.548 32.5468 170.004 33.1712 169.353 33.6861C168.702 34.1951 167.971 34.5827 167.16 34.8491C166.355 35.1154 165.494 35.2486 164.577 35.2486C163.026 35.2486 161.647 34.8698 160.44 34.1122C159.232 33.3546 158.282 32.2775 157.59 30.8807C156.897 29.4839 156.551 27.8267 156.551 25.9091C156.551 23.9915 156.897 22.3343 157.59 20.9375C158.282 19.5407 159.232 18.4635 160.44 17.706C161.647 16.9484 163.026 16.5696 164.577 16.5696C165.494 16.5696 166.355 16.7028 167.16 16.9691C167.971 17.2354 168.702 17.6261 169.353 18.141C170.004 18.65 170.548 19.2714 170.986 20.0053C171.424 20.7333 171.726 21.5649 171.892 22.5ZM175.45 35V16.8182H181.593C183.02 16.8182 184.186 17.0756 185.091 17.5906C186.003 18.0996 186.677 18.7891 187.115 19.6591C187.553 20.5291 187.772 21.4998 187.772 22.571C187.772 23.6423 187.553 24.6159 187.115 25.4918C186.683 26.3678 186.014 27.0662 185.109 27.587C184.203 28.1019 183.043 28.3594 181.629 28.3594H177.225V26.4062H181.558C182.534 26.4062 183.318 26.2376 183.91 25.9002C184.502 25.5629 184.931 25.1071 185.198 24.533C185.47 23.953 185.606 23.299 185.606 22.571C185.606 21.843 185.47 21.192 185.198 20.6179C184.931 20.0438 184.499 19.594 183.901 19.2685C183.304 18.937 182.511 18.7713 181.522 18.7713H177.651V35H175.45Z" fill="black"/>
<path d="M46.2017 35H45.7017V35.5H46.2017V35ZM46.2017 16.8182V16.3182H45.7017V16.8182H46.2017ZM55.843 17.5906L55.5959 18.0252L55.5993 18.0271L55.843 17.5906ZM57.8672 19.6591L57.4206 19.8839H57.4206L57.8672 19.6591ZM57.8672 25.4918L57.42 25.2682L57.4188 25.2707L57.8672 25.4918ZM55.8608 27.587L56.108 28.0217L56.1101 28.0204L55.8608 27.587ZM47.9773 28.3594H47.4773V28.8594H47.9773V28.3594ZM47.9773 26.4062V25.9062H47.4773V26.4062H47.9773ZM54.6623 25.9002L54.4147 25.4658L54.6623 25.9002ZM55.9496 24.533L55.497 24.3206L55.496 24.3226L55.9496 24.533ZM55.9496 20.6179L55.496 20.8283L55.4978 20.8321L55.9496 20.6179ZM54.6534 19.2685L54.4109 19.7058L54.4143 19.7076L54.6534 19.2685ZM48.4034 18.7713V18.2713H47.9034V18.7713H48.4034ZM48.4034 35V35.5H48.9034V35H48.4034ZM46.7017 35V16.8182H45.7017V35H46.7017ZM46.2017 17.3182H52.3452V16.3182H46.2017V17.3182ZM52.3452 17.3182C53.7155 17.3182 54.7884 17.5661 55.5959 18.0252L56.0902 17.1559C55.0866 16.5852 53.8276 16.3182 52.3452 16.3182V17.3182ZM55.5993 18.0271C56.43 18.491 57.0308 19.1096 57.4206 19.8839L58.3138 19.4343C57.8276 18.4685 57.0789 17.7081 56.0868 17.154L55.5993 18.0271ZM57.4206 19.8839C57.8201 20.6775 58.0241 21.5699 58.0241 22.571H59.0241C59.0241 21.4296 58.7903 20.3808 58.3138 19.4343L57.4206 19.8839ZM58.0241 22.571C58.0241 23.5721 57.8201 24.468 57.42 25.2682L58.3144 25.7154C58.7903 24.7637 59.0241 23.7125 59.0241 22.571H58.0241ZM57.4188 25.2707C57.0337 26.0514 56.4374 26.6786 55.6115 27.1536L56.1101 28.0204C57.0953 27.4538 57.8366 26.6842 58.3156 25.713L57.4188 25.2707ZM55.6136 27.1524C54.8057 27.6118 53.7383 27.8594 52.3807 27.8594V28.8594C53.8521 28.8594 55.1049 28.592 56.1079 28.0216L55.6136 27.1524ZM52.3807 27.8594H47.9773V28.8594H52.3807V27.8594ZM48.4773 28.3594V26.4062H47.4773V28.3594H48.4773ZM47.9773 26.9062H52.3097V25.9062H47.9773V26.9062ZM52.3097 26.9062C53.3376 26.9062 54.2169 26.7296 54.9099 26.3346L54.4147 25.4658C53.924 25.7455 53.2348 25.9062 52.3097 25.9062V26.9062ZM54.9099 26.3346C55.5847 25.9499 56.0897 25.4191 56.4031 24.7434L55.496 24.3226C55.2768 24.7951 54.9236 25.1758 54.4147 25.4658L54.9099 26.3346ZM56.4022 24.7455C56.7096 24.0905 56.858 23.3624 56.858 22.571H55.858C55.858 23.2356 55.734 23.8155 55.497 24.3206L56.4022 24.7455ZM56.858 22.571C56.858 21.7797 56.7097 21.0538 56.4013 20.4037L55.4978 20.8321C55.734 21.3302 55.858 21.9063 55.858 22.571H56.858ZM56.4031 20.4075C56.0882 19.7286 55.5769 19.202 54.8925 18.8294L54.4143 19.7076C54.9255 19.9859 55.2783 20.359 55.496 20.8283L56.4031 20.4075ZM54.8959 18.8312C54.1981 18.4443 53.312 18.2713 52.2741 18.2713V19.2713C53.2131 19.2713 53.9132 19.4297 54.411 19.7057L54.8959 18.8312ZM52.2741 18.2713H48.4034V19.2713H52.2741V18.2713ZM47.9034 18.7713V35H48.9034V18.7713H47.9034ZM48.4034 34.5H46.2017V35.5H48.4034V34.5ZM63.9396 34.4052L63.6717 34.8274L63.6729 34.8281L63.9396 34.4052ZM61.7734 31.946L61.3242 32.1656L61.3252 32.1676L61.7734 31.946ZM61.7734 24.533L61.3247 24.3124L61.3237 24.3145L61.7734 24.533ZM63.9396 22.065L63.6729 21.642L63.6717 21.6428L63.9396 22.065ZM70.4116 22.065L70.1437 22.4872L70.1449 22.4879L70.4116 22.065ZM72.5778 24.533L72.1281 24.7516L72.1291 24.7536L72.5778 24.533ZM72.5778 31.946L72.1295 31.7244L72.1286 31.7265L72.5778 31.946ZM70.4116 34.4052L70.1449 33.9822L70.1437 33.983L70.4116 34.4052ZM69.4883 32.6829L69.1773 32.2913L69.4883 32.6829ZM70.8288 30.7919L71.2976 30.9659L70.8288 30.7919ZM70.8288 25.7049L71.298 25.532L70.8288 25.7049ZM69.4883 23.7962L69.8016 23.4065L69.4883 23.7962ZM64.8718 23.7962L64.5585 23.4065L64.8718 23.7962ZM63.5312 25.7049L63.0621 25.532L63.5312 25.7049ZM63.5312 30.7919L63.0625 30.9659L63.5312 30.7919ZM64.8718 32.6829L65.1827 32.2913L64.8718 32.6829ZM67.18 34.7841C66.0316 34.7841 65.0463 34.5119 64.2063 33.9822L63.6729 34.8281C64.6914 35.4703 65.8663 35.7841 67.18 35.7841V34.7841ZM64.2075 33.983C63.3674 33.4498 62.705 32.7022 62.2217 31.7244L61.3252 32.1676C61.8835 33.2969 62.6653 34.1887 63.6717 34.8273L64.2075 33.983ZM62.2227 31.7265C61.7472 30.7537 61.5011 29.6005 61.5011 28.2528H60.5011C60.5011 29.7224 60.7698 31.0313 61.3242 32.1656L62.2227 31.7265ZM61.5011 28.2528C61.5011 26.8927 61.7474 25.7303 62.2231 24.7516L61.3237 24.3145C60.7696 25.4546 60.5011 26.772 60.5011 28.2528H61.5011ZM62.2221 24.7536C62.7058 23.7699 63.3681 23.0199 64.2075 22.4872L63.6717 21.6428C62.6646 22.282 61.8828 23.1773 61.3247 24.3124L62.2221 24.7536ZM64.2063 22.4879C65.0463 21.9582 66.0316 21.6861 67.18 21.6861V20.6861C65.8663 20.6861 64.6914 20.9999 63.6729 21.642L64.2063 22.4879ZM67.18 21.6861C68.3285 21.6861 69.3103 21.9583 70.1437 22.4872L70.6795 21.6428C69.6663 20.9998 68.4937 20.6861 67.18 20.6861V21.6861ZM70.1449 22.4879C70.9895 23.0205 71.6508 23.7697 72.1281 24.7516L73.0275 24.3145C72.4749 23.1775 71.6921 22.2813 70.6783 21.642L70.1449 22.4879ZM72.1291 24.7536C72.61 25.7318 72.859 26.8935 72.859 28.2528H73.859C73.859 26.7713 73.5872 25.4531 73.0265 24.3124L72.1291 24.7536ZM72.859 28.2528C72.859 29.5997 72.6102 30.7522 72.1296 31.7244L73.026 32.1676C73.587 31.0328 73.859 29.7232 73.859 28.2528H72.859ZM72.1286 31.7265C71.6516 32.7024 70.9902 33.4492 70.1449 33.9822L70.6783 34.8281C71.6914 34.1893 72.4742 33.2966 73.027 32.1656L72.1286 31.7265ZM70.1437 33.983C69.3103 34.5119 68.3285 34.7841 67.18 34.7841V35.7841C68.4937 35.7841 69.6663 35.4703 70.6795 34.8273L70.1437 33.983ZM67.18 33.902C68.2033 33.902 69.0894 33.6381 69.7992 33.0744L69.1773 32.2913C68.6797 32.6865 68.0271 32.902 67.18 32.902V33.902ZM69.7992 33.0744C70.4802 32.5337 70.9785 31.8255 71.2976 30.9659L70.3601 30.6179C70.0992 31.3208 69.7038 31.8733 69.1773 32.2913L69.7992 33.0744ZM71.2976 30.9659C71.6101 30.124 71.7638 29.2181 71.7638 28.2528H70.7638C70.7638 29.1105 70.6276 29.8973 70.3601 30.6179L71.2976 30.9659ZM71.7638 28.2528C71.7638 27.2875 71.6101 26.3792 71.298 25.532L70.3597 25.8778C70.6276 26.605 70.7638 27.3953 70.7638 28.2528H71.7638ZM71.298 25.532C70.9793 24.6671 70.4818 23.9533 69.8016 23.4065L69.175 24.1859C69.7022 24.6097 70.0983 25.1683 70.3597 25.8778L71.298 25.532ZM69.8016 23.4065C69.0917 22.8358 68.2047 22.5682 67.18 22.5682V23.5682C68.0257 23.5682 68.6775 23.7859 69.175 24.1859L69.8016 23.4065ZM67.18 22.5682C66.1554 22.5682 65.2684 22.8358 64.5585 23.4065L65.1851 24.1859C65.6826 23.7859 66.3344 23.5682 67.18 23.5682V22.5682ZM64.5585 23.4065C63.8783 23.9533 63.3807 24.6671 63.0621 25.532L64.0004 25.8778C64.2618 25.1683 64.6579 24.6097 65.1851 24.1859L64.5585 23.4065ZM63.0621 25.532C62.75 26.3792 62.5962 27.2875 62.5962 28.2528H63.5962C63.5962 27.3953 63.7325 26.605 64.0004 25.8778L63.0621 25.532ZM62.5962 28.2528C62.5962 29.2181 62.75 30.124 63.0625 30.9659L64 30.6179C63.7325 29.8973 63.5962 29.1105 63.5962 28.2528H62.5962ZM63.0625 30.9659C63.3816 31.8255 63.8799 32.5337 64.5609 33.0744L65.1827 32.2913C64.6563 31.8733 64.2609 31.3208 64 30.6179L63.0625 30.9659ZM64.5609 33.0744C65.2706 33.6381 66.1568 33.902 67.18 33.902V32.902C66.333 32.902 65.6803 32.6865 65.1827 32.2913L64.5609 33.0744ZM76.5573 35H76.0573V35.5H76.5573V35ZM76.5573 21.3636V20.8636H76.0573V21.3636H76.5573ZM78.5814 21.3636H79.0814V20.8636H78.5814V21.3636ZM78.5814 23.4233H78.0814V23.9233H78.5814V23.4233ZM78.7235 23.4233V23.9233H79.0721L79.1926 23.5961L78.7235 23.4233ZM80.0729 21.7809L79.8017 21.3608L80.0729 21.7809ZM83.3754 21.1861H83.8754V20.7336L83.4252 20.6886L83.3754 21.1861ZM83.3754 23.3168L83.2542 23.8018L83.8754 23.9571V23.3168H83.3754ZM82.8872 23.2369L82.8049 23.7302L82.8181 23.7321L82.8872 23.2369ZM80.3215 23.592L80.5552 24.034L80.557 24.033L80.3215 23.592ZM79.0963 24.7283L78.6717 24.4643L78.6709 24.4657L79.0963 24.7283ZM78.6524 35V35.5H79.1524V35H78.6524ZM77.0573 35V21.3636H76.0573V35H77.0573ZM76.5573 21.8636H78.5814V20.8636H76.5573V21.8636ZM78.0814 21.3636V23.4233H79.0814V21.3636H78.0814ZM78.5814 23.9233H78.7235V22.9233H78.5814V23.9233ZM79.1926 23.5961C79.4008 23.0312 79.7765 22.5673 80.344 22.201L79.8017 21.3608C79.0671 21.8349 78.5433 22.466 78.2543 23.2504L79.1926 23.5961ZM80.344 22.201C80.9098 21.8358 81.5486 21.6506 82.2746 21.6506V20.6506C81.3671 20.6506 80.5381 20.8855 79.8017 21.3608L80.344 22.201ZM82.2746 21.6506C82.4227 21.6506 82.6104 21.6534 82.8388 21.6593L82.8645 20.6596C82.6313 20.6536 82.4343 20.6506 82.2746 20.6506V21.6506ZM82.8388 21.6593C83.0665 21.6651 83.2262 21.6736 83.3257 21.6836L83.4252 20.6886C83.2879 20.6748 83.0985 20.6656 82.8645 20.6596L82.8388 21.6593ZM82.8754 21.1861V23.3168H83.8754V21.1861H82.8754ZM83.4967 22.8317C83.3946 22.8062 83.2033 22.7761 82.9563 22.7417L82.8181 23.7321C83.08 23.7686 83.2142 23.7918 83.2542 23.8018L83.4967 22.8317ZM82.9694 22.7437C82.691 22.6973 82.3999 22.6747 82.097 22.6747V23.6747C82.3505 23.6747 82.5862 23.6936 82.805 23.7301L82.9694 22.7437ZM82.097 22.6747C81.3622 22.6747 80.6877 22.8295 80.0859 23.1509L80.557 24.033C80.9969 23.7981 81.5061 23.6747 82.097 23.6747V22.6747ZM80.0878 23.15C79.4962 23.4628 79.0213 23.9023 78.6717 24.4643L79.5209 24.9924C79.7751 24.5837 80.1169 24.2657 80.5552 24.034L80.0878 23.15ZM78.6709 24.4657C78.3217 25.0313 78.1524 25.6713 78.1524 26.3707H79.1524C79.1524 25.8391 79.2791 25.3842 79.5218 24.991L78.6709 24.4657ZM78.1524 26.3707V35H79.1524V26.3707H78.1524ZM78.6524 34.5H76.5573V35.5H78.6524V34.5ZM92.6439 21.3636H93.1439V20.8636H92.6439V21.3636ZM92.6439 23.1392V23.6392H93.1439V23.1392H92.6439ZM85.5771 23.1392H85.0771V23.6392H85.5771V23.1392ZM85.5771 21.3636V20.8636H85.0771V21.3636H85.5771ZM87.6368 18.0966V17.5966H87.1368V18.0966H87.6368ZM89.732 18.0966H90.232V17.5966H89.732V18.0966ZM89.9894 32.4254L89.5568 32.6764L89.563 32.6865L89.9894 32.4254ZM90.6642 33.0114L90.4908 33.4805L90.503 33.4847L90.6642 33.0114ZM92.1112 33.1179L92.1902 33.6116L92.1998 33.6101L92.2093 33.6082L92.1112 33.1179ZM92.4664 33.0469L92.954 32.9365L92.8464 32.461L92.3683 32.5566L92.4664 33.0469ZM92.8925 34.929L93.0681 35.3971L93.4765 35.244L93.3801 34.8186L92.8925 34.929ZM92.2977 35.0888L92.1952 34.5993L92.1844 34.6018L92.2977 35.0888ZM89.5899 34.7958L89.3838 35.2513L89.3855 35.2521L89.5899 34.7958ZM88.1872 33.6328L87.7785 33.9208L87.7807 33.9239L88.1872 33.6328ZM92.1439 21.3636V23.1392H93.1439V21.3636H92.1439ZM92.6439 22.6392H85.5771V23.6392H92.6439V22.6392ZM86.0771 23.1392V21.3636H85.0771V23.1392H86.0771ZM85.5771 21.8636H92.6439V20.8636H85.5771V21.8636ZM87.6368 18.5966H89.732V17.5966H87.6368V18.5966ZM89.232 18.0966V31.0938H90.232V18.0966H89.232ZM89.232 31.0938C89.232 31.7176 89.3195 32.267 89.5569 32.6763L90.422 32.1746C90.3161 31.992 90.232 31.6537 90.232 31.0938H89.232ZM89.563 32.6865C89.7887 33.0551 90.0958 33.3344 90.4908 33.4804L90.8375 32.5424C90.6879 32.4871 90.5453 32.3757 90.4159 32.1643L89.563 32.6865ZM90.503 33.4847C90.8355 33.5979 91.1831 33.6534 91.5431 33.6534V32.6534C91.2875 32.6534 91.0491 32.6142 90.8253 32.538L90.503 33.4847ZM91.5431 33.6534C91.7878 33.6534 92.0062 33.6411 92.1902 33.6116L92.0322 32.6242C91.9204 32.6421 91.7599 32.6534 91.5431 32.6534V33.6534ZM92.2093 33.6082C92.3573 33.5786 92.4756 33.5549 92.5644 33.5372L92.3683 32.5566C92.2795 32.5743 92.1611 32.598 92.0132 32.6276L92.2093 33.6082ZM91.9787 33.1573L92.4048 35.0394L93.3801 34.8186L92.954 32.9365L91.9787 33.1573ZM92.7169 34.4608C92.6096 34.5011 92.4397 34.5482 92.1952 34.5994L92.4001 35.5782C92.6646 35.5228 92.8913 35.4634 93.0681 35.3971L92.7169 34.4608ZM92.1844 34.6018C91.9805 34.6492 91.6993 34.6776 91.33 34.6776V35.6776C91.742 35.6776 92.1059 35.6467 92.4109 35.5758L92.1844 34.6018ZM91.33 34.6776C90.8122 34.6776 90.3016 34.5667 89.7943 34.3395L89.3855 35.2521C90.0146 35.5339 90.664 35.6776 91.33 35.6776V34.6776ZM89.7961 34.3403C89.317 34.1235 88.9175 33.7939 88.5938 33.3418L87.7807 33.9239C88.2027 34.5134 88.7383 34.9592 89.3838 35.2513L89.7961 34.3403ZM88.596 33.3448C88.3016 32.927 88.1368 32.3774 88.1368 31.6619H87.1368C87.1368 32.5327 87.339 33.297 87.7785 33.9208L88.596 33.3448ZM88.1368 31.6619V18.0966H87.1368V31.6619H88.1368ZM97.4557 34.8313L97.2428 35.2837L97.2459 35.2852L97.4557 34.8313ZM95.7778 33.402L95.3605 33.6775L95.3618 33.6793L95.7778 33.402ZM95.618 29.2294L96.0402 29.4972L96.0417 29.4949L95.618 29.2294ZM98.5566 27.4538L98.6635 27.9423L98.667 27.9415L98.5566 27.4538ZM100.448 27.1165L100.384 26.6206L100.383 26.6207L100.448 27.1165ZM102.463 26.8768L102.514 27.3741L102.519 27.3736L102.463 26.8768ZM103.599 26.5838L103.355 26.1477L103.35 26.1504L103.599 26.5838ZM103.244 23.7607L102.886 24.1098L102.888 24.112L103.244 23.7607ZM98.7341 23.6896L99.0394 24.0856L98.7341 23.6896ZM97.5356 25.0923L97.3674 25.5632L97.797 25.7166L97.9891 25.3029L97.5356 25.0923ZM95.547 24.3821L95.0874 24.1851L94.8779 24.6741L95.3788 24.853L95.547 24.3821ZM96.9674 22.4467L97.2749 22.841L97.2755 22.8406L96.9674 22.4467ZM98.9205 21.4702L99.0466 21.954L99.0494 21.9533L98.9205 21.4702ZM102.525 21.3459L102.433 21.8374L102.439 21.8384L102.525 21.3459ZM104.185 21.9762L103.928 22.405L103.93 22.4062L104.185 21.9762ZM105.526 23.4233L105.088 23.6644V23.6644L105.526 23.4233ZM106.058 35V35.5H106.558V35H106.058ZM103.963 35H103.463V35.5H103.963V35ZM103.963 33.1534H104.463V32.6534H103.963V33.1534ZM103.857 33.1534V32.6534H103.542L103.406 32.937L103.857 33.1534ZM103.146 34.1033L103.503 34.4537L103.146 34.1033ZM101.824 34.9645L101.626 34.5052L101.824 34.9645ZM102.223 32.9492L101.976 32.5143L101.975 32.5154L102.223 32.9492ZM103.519 31.6886L103.086 31.4394L103.084 31.4432L103.519 31.6886ZM103.963 28.1463H104.463V26.7653L103.579 27.8262L103.963 28.1463ZM103.377 28.4393L103.512 28.9208L103.518 28.919L103.377 28.4393ZM102.347 28.6612L102.423 29.1554L102.43 29.1544L102.347 28.6612ZM101.22 28.821L101.277 29.3178L101.284 29.3169L101.22 28.821ZM100.341 28.9276L100.406 29.4234L100.406 29.4233L100.341 28.9276ZM98.814 29.2738L98.9703 29.7487L98.9739 29.7475L98.814 29.2738ZM97.6776 29.9751L97.3105 29.6357L97.3102 29.636L97.6776 29.9751ZM98.0594 32.8871L97.7748 33.2982L97.78 33.3017L98.0594 32.8871ZM99.8083 34.8196C99.0084 34.8196 98.2969 34.6693 97.6655 34.3775L97.2459 35.2852C98.0231 35.6444 98.8801 35.8196 99.8083 35.8196V34.8196ZM97.6686 34.3789C97.043 34.0845 96.5554 33.6671 96.1938 33.1246L95.3618 33.6793C95.8288 34.3798 96.4597 34.9152 97.2428 35.2837L97.6686 34.3789ZM96.195 33.1265C95.8439 32.5947 95.6563 31.9371 95.6563 31.1293H94.6563C94.6563 32.097 94.8831 32.9545 95.3606 33.6775L96.195 33.1265ZM95.6563 31.1293C95.6563 30.4098 95.7984 29.8785 96.0402 29.4972L95.1957 28.9616C94.822 29.551 94.6563 30.2862 94.6563 31.1293H95.6563ZM96.0417 29.4949C96.3031 29.0776 96.65 28.7527 97.0897 28.5152L96.6144 27.6354C96.0241 27.9542 95.5484 28.3987 95.1943 28.9639L96.0417 29.4949ZM97.0897 28.5152C97.5601 28.2611 98.0838 28.0693 98.6635 27.9423L98.4496 26.9654C97.7864 27.1107 97.1737 27.3332 96.6144 27.6354L97.0897 28.5152ZM98.667 27.9415C99.2794 27.8028 99.8945 27.6931 100.512 27.6123L100.383 26.6207C99.734 26.7056 99.0884 26.8208 98.4461 26.9662L98.667 27.9415ZM100.511 27.6124C101.338 27.5061 102.005 27.4268 102.514 27.3741L102.411 26.3794C101.891 26.4333 101.214 26.5138 100.384 26.6206L100.511 27.6124ZM102.519 27.3736C103.057 27.3125 103.52 27.2061 103.848 27.0173L103.35 26.1504C103.205 26.2338 102.91 26.3227 102.406 26.38L102.519 27.3736ZM103.844 27.0199C104.28 26.7751 104.463 26.3463 104.463 25.8736H103.463C103.463 26.0756 103.403 26.1203 103.355 26.1477L103.844 27.0199ZM104.463 25.8736V25.8026H103.463V25.8736H104.463ZM104.463 25.8026C104.463 24.8341 104.196 24.0127 103.6 23.4093L102.888 24.112C103.251 24.4792 103.463 25.0191 103.463 25.8026H104.463ZM103.602 23.4115C103.001 22.795 102.129 22.5327 101.087 22.5327V23.5327C101.974 23.5327 102.541 23.7556 102.886 24.1098L103.602 23.4115ZM101.087 22.5327C100.019 22.5327 99.1132 22.7661 98.4289 23.2936L99.0394 24.0856C99.4914 23.7372 100.154 23.5327 101.087 23.5327V22.5327ZM98.4289 23.2936C97.816 23.766 97.3555 24.2928 97.0821 24.8818L97.9891 25.3029C98.1773 24.8975 98.5158 24.4892 99.0394 24.0856L98.4289 23.2936ZM97.7038 24.6215L95.7151 23.9112L95.3788 24.853L97.3674 25.5632L97.7038 24.6215ZM96.0065 24.5791C96.3351 23.8125 96.7618 23.2413 97.2749 22.841L96.6599 22.0525C95.9894 22.5755 95.4691 23.2945 95.0874 24.1851L96.0065 24.5791ZM97.2755 22.8406C97.8217 22.4133 98.4113 22.1195 99.0466 21.954L98.7945 20.9863C98.0212 21.1878 97.3087 21.545 96.6594 22.0529L97.2755 22.8406ZM99.0494 21.9533C99.7205 21.7743 100.376 21.6861 101.016 21.6861V20.6861C100.283 20.6861 99.541 20.7872 98.7917 20.9871L99.0494 21.9533ZM101.016 21.6861C101.415 21.6861 101.886 21.7348 102.433 21.8373L102.617 20.8544C102.028 20.7439 101.493 20.6861 101.016 20.6861V21.6861ZM102.439 21.8384C102.948 21.9277 103.444 22.1148 103.928 22.405L104.442 21.5475C103.861 21.1984 103.25 20.9653 102.611 20.8534L102.439 21.8384ZM103.93 22.4062C104.379 22.6728 104.768 23.0836 105.088 23.6644L105.964 23.1822C105.573 22.4728 105.068 21.9188 104.44 21.5462L103.93 22.4062ZM105.088 23.6644C105.387 24.209 105.558 24.98 105.558 26.0156H106.558C106.558 24.8851 106.374 23.9279 105.964 23.1822L105.088 23.6644ZM105.558 26.0156V35H106.558V26.0156H105.558ZM106.058 34.5H103.963V35.5H106.058V34.5ZM104.463 35V33.1534H103.463V35H104.463ZM103.963 32.6534H103.857V33.6534H103.963V32.6534ZM103.406 32.937C103.296 33.1668 103.098 33.439 102.79 33.7529L103.503 34.4537C103.858 34.0929 104.134 33.7319 104.307 33.3698L103.406 32.937ZM102.79 33.7529C102.514 34.0335 102.132 34.2875 101.626 34.5052L102.021 35.4238C102.616 35.168 103.116 34.8479 103.503 34.4537L102.79 33.7529ZM101.626 34.5052C101.155 34.7079 100.554 34.8196 99.8083 34.8196V35.8196C100.648 35.8196 101.392 35.6946 102.021 35.4238L101.626 34.5052ZM100.128 33.9375C101.021 33.9375 101.81 33.762 102.472 33.3831L101.975 32.5154C101.5 32.7875 100.892 32.9375 100.128 32.9375V33.9375ZM102.47 33.3842C103.113 33.0192 103.615 32.537 103.955 31.9339L103.084 31.4432C102.843 31.8699 102.481 32.2282 101.976 32.5143L102.47 33.3842ZM103.953 31.9377C104.29 31.3506 104.463 30.7236 104.463 30.0639H103.463C103.463 30.5406 103.34 30.9967 103.086 31.4394L103.953 31.9377ZM104.463 30.0639V28.1463H103.463V30.0639H104.463ZM103.579 27.8262C103.597 27.8048 103.594 27.8185 103.526 27.8522C103.464 27.8834 103.37 27.9202 103.236 27.9596L103.518 28.919C103.686 28.8695 103.841 28.8131 103.974 28.7467C104.101 28.6828 104.241 28.5943 104.347 28.4664L103.579 27.8262ZM103.242 27.9578C102.968 28.0347 102.643 28.1051 102.265 28.168L102.43 29.1544C102.833 29.0872 103.195 29.0096 103.512 28.9208L103.242 27.9578ZM102.271 28.167C101.89 28.2256 101.519 28.2783 101.156 28.3251L101.284 29.3169C101.655 29.269 102.035 29.2152 102.423 29.1554L102.271 28.167ZM101.163 28.3243C100.801 28.3659 100.505 28.4017 100.276 28.4318L100.406 29.4233C100.627 29.3942 100.917 29.359 101.277 29.3178L101.163 28.3243ZM100.276 28.4318C99.7026 28.5066 99.1614 28.6288 98.6541 28.8L98.9739 29.7475C99.4136 29.5991 99.8904 29.4906 100.406 29.4234L100.276 28.4318ZM98.6577 28.7989C98.1219 28.9752 97.6664 29.2508 97.3105 29.6357L98.0448 30.3146C98.2689 30.0722 98.571 29.8802 98.9703 29.7487L98.6577 28.7989ZM97.3102 29.636C96.9196 30.0592 96.7515 30.6129 96.7515 31.2358H97.7515C97.7515 30.7934 97.8675 30.5066 98.045 30.3143L97.3102 29.636ZM96.7515 31.2358C96.7515 32.1065 97.0847 32.8204 97.7748 33.2982L98.344 32.476C97.9569 32.208 97.7515 31.821 97.7515 31.2358H96.7515ZM97.78 33.3017C98.4268 33.7376 99.2208 33.9375 100.128 33.9375V32.9375C99.3661 32.9375 98.781 32.7704 98.3388 32.4724L97.78 33.3017ZM111.978 16.8182H112.478V16.3182H111.978V16.8182ZM111.978 35V35.5H112.478V35H111.978ZM109.882 35H109.382V35.5H109.882V35ZM109.882 16.8182V16.3182H109.382V16.8182H109.882ZM111.478 16.8182V35H112.478V16.8182H111.478ZM111.978 34.5H109.882V35.5H111.978V34.5ZM110.382 35V16.8182H109.382V35H110.382ZM109.882 17.3182H111.978V16.3182H109.882V17.3182ZM133.074 21.3636L132.577 21.4224L132.629 21.8636H133.074V21.3636ZM131.777 19.2685L131.503 19.6865L131.777 19.2685ZM126.877 18.9134L126.679 18.4542L126.677 18.455L126.877 18.9134ZM125.474 19.9876L125.072 19.6901L125.07 19.6935L125.474 19.9876ZM125.323 22.793L124.906 23.0687L124.912 23.0768L125.323 22.793ZM126.229 23.6541L125.963 24.0774L125.967 24.0804L126.229 23.6541ZM127.383 24.2134L127.21 24.6828L127.216 24.6849L127.383 24.2134ZM128.493 24.5597L128.623 24.0768L128.62 24.0761L128.493 24.5597ZM130.339 25.0568L130.209 25.5396L130.212 25.5404L130.339 25.0568ZM131.919 25.5717L131.743 26.0395L131.744 26.0401L131.919 25.5717ZM133.597 26.4684L133.308 26.8759L133.313 26.8795L133.597 26.4684ZM134.929 27.9066L135.359 27.6506V27.6506L134.929 27.9066ZM134.68 32.7273L134.261 32.455L134.26 32.4572L134.68 32.7273ZM132.443 34.6183L132.228 34.1668L132.227 34.1673L132.443 34.6183ZM125.501 34.6893L125.298 35.1463L125.299 35.1468L125.501 34.6893ZM123.264 32.9315L122.857 33.2227L122.859 33.2248L123.264 32.9315ZM122.349 30.3125V29.8125H121.812L121.85 30.3481L122.349 30.3125ZM124.622 30.3125L125.12 30.2696L125.081 29.8125H124.622V30.3125ZM125.314 32.017L124.942 32.3505L124.946 32.3556L125.314 32.017ZM126.859 33.0114L126.693 33.483L126.698 33.4848L126.859 33.0114ZM131.147 32.9226L131.336 33.3857L131.339 33.3842L131.147 32.9226ZM132.736 31.7685L133.128 32.0797L133.129 32.0774L132.736 31.7685ZM132.816 28.5547L133.19 28.2221L132.816 28.5547ZM131.484 27.6314L131.287 28.0907L131.484 27.6314ZM129.7 27.0099L129.563 27.4907L129.566 27.4917L129.7 27.0099ZM127.463 26.3707L127.325 26.8513L127.325 26.8515L127.463 26.3707ZM124.089 24.6218L123.752 24.9908L124.089 24.6218ZM123.672 18.9844L123.268 18.6899L123.267 18.6905L123.672 18.9844ZM125.909 17.2088L126.114 17.6649L126.115 17.6643L125.909 17.2088ZM132.186 17.1999L131.976 17.654L131.979 17.6551L132.186 17.1999ZM134.352 18.9045L133.95 19.2013L133.951 19.2034L134.352 18.9045ZM135.204 21.3636V21.8636H135.721L135.704 21.3475L135.204 21.3636ZM133.57 21.3048C133.446 20.2585 132.933 19.4286 132.052 18.8504L131.503 19.6865C132.137 20.1026 132.488 20.6695 132.577 21.4224L133.57 21.3048ZM132.052 18.8504C131.197 18.2893 130.167 18.0227 128.99 18.0227V19.0227C130.014 19.0227 130.843 19.2533 131.503 19.6865L132.052 18.8504ZM128.99 18.0227C128.132 18.0227 127.357 18.1615 126.679 18.4542L127.075 19.3725C127.604 19.1443 128.238 19.0227 128.99 19.0227V18.0227ZM126.677 18.455C126.011 18.7451 125.469 19.1539 125.072 19.6901L125.876 20.2851C126.154 19.9097 126.547 19.6025 127.077 19.3717L126.677 18.455ZM125.07 19.6935C124.674 20.2373 124.477 20.8588 124.477 21.5412H125.477C125.477 21.0635 125.611 20.6493 125.879 20.2817L125.07 19.6935ZM124.477 21.5412C124.477 22.1085 124.613 22.6253 124.906 23.0687L125.74 22.5173C125.572 22.2623 125.477 21.9445 125.477 21.5412H124.477ZM124.912 23.0768C125.188 23.4782 125.541 23.8119 125.963 24.0773L126.495 23.2309C126.183 23.0347 125.932 22.7943 125.735 22.5091L124.912 23.0768ZM125.967 24.0804C126.362 24.3225 126.777 24.5233 127.21 24.6827L127.555 23.7441C127.184 23.6076 126.829 23.4356 126.49 23.2278L125.967 24.0804ZM127.216 24.6849C127.629 24.8306 128.012 24.9503 128.365 25.0432L128.62 24.0761C128.298 23.9915 127.942 23.8804 127.549 23.7419L127.216 24.6849ZM128.363 25.0425L130.209 25.5396L130.469 24.574L128.623 24.0769L128.363 25.0425ZM130.212 25.5404C130.665 25.6593 131.175 25.8251 131.743 26.0395L132.096 25.104C131.504 24.8804 130.96 24.7029 130.466 24.5732L130.212 25.5404ZM131.744 26.0401C132.288 26.2432 132.809 26.5211 133.308 26.8759L133.887 26.0609C133.321 25.6581 132.723 25.3383 132.095 25.1034L131.744 26.0401ZM133.313 26.8795C133.79 27.2099 134.185 27.6355 134.5 28.1626L135.359 27.6506C134.974 27.0058 134.482 26.4726 133.882 26.0573L133.313 26.8795ZM134.5 28.1626C134.792 28.654 134.953 29.2795 134.953 30.0639H135.953C135.953 29.1438 135.764 28.3311 135.359 27.6506L134.5 28.1626ZM134.953 30.0639C134.953 30.9537 134.721 31.7462 134.261 32.455L135.1 32.9995C135.67 32.1221 135.953 31.1391 135.953 30.0639H134.953ZM134.26 32.4572C133.808 33.1603 133.14 33.733 132.228 34.1668L132.658 35.0697C133.712 34.5684 134.535 33.8804 135.101 32.9973L134.26 32.4572ZM132.227 34.1673C131.335 34.5946 130.226 34.8196 128.883 34.8196V35.8196C130.334 35.8196 131.599 35.577 132.659 35.0692L132.227 34.1673ZM128.883 34.8196C127.634 34.8196 126.578 34.6179 125.703 34.2318L125.299 35.1468C126.329 35.6011 127.529 35.8196 128.883 35.8196V34.8196ZM125.704 34.2323C124.828 33.8436 124.155 33.3103 123.669 32.6381L122.859 33.2248C123.461 34.0559 124.28 34.6946 125.298 35.1463L125.704 34.2323ZM123.67 32.6402C123.189 31.9695 122.913 31.1866 122.848 30.2769L121.85 30.3481C121.928 31.4271 122.261 32.3901 122.857 33.2227L123.67 32.6402ZM122.349 30.8125H124.622V29.8125H122.349V30.8125ZM124.124 30.3554C124.191 31.1339 124.457 31.8088 124.942 32.3504L125.687 31.6836C125.367 31.3257 125.171 30.8642 125.12 30.2696L124.124 30.3554ZM124.946 32.3556C125.415 32.8651 126.002 33.2393 126.693 33.4829L127.025 32.5398C126.474 32.3454 126.03 32.0568 125.682 31.6785L124.946 32.3556ZM126.698 33.4848C127.382 33.717 128.111 33.831 128.883 33.831V32.831C128.211 32.831 127.591 32.7319 127.02 32.5379L126.698 33.4848ZM128.883 33.831C129.778 33.831 130.598 33.686 131.336 33.3857L130.959 32.4595C130.359 32.7037 129.67 32.831 128.883 32.831V33.831ZM131.339 33.3842C132.074 33.0786 132.677 32.6467 133.128 32.0797L132.345 31.4573C132.015 31.8727 131.558 32.2102 130.955 32.4609L131.339 33.3842ZM133.129 32.0774C133.593 31.4876 133.822 30.7975 133.822 30.0284H132.822C132.822 30.5851 132.661 31.055 132.343 31.4596L133.129 32.0774ZM133.822 30.0284C133.822 29.3267 133.623 28.7093 133.19 28.2221L132.443 28.8872C132.684 29.1576 132.822 29.5227 132.822 30.0284H133.822ZM133.19 28.2221C132.796 27.7797 132.288 27.4325 131.682 27.1721L131.287 28.0907C131.782 28.3037 132.162 28.5721 132.443 28.8872L133.19 28.2221ZM131.682 27.1721C131.109 26.9255 130.492 26.7111 129.834 26.5282L129.566 27.4917C130.186 27.6639 130.759 27.8638 131.287 28.0907L131.682 27.1721ZM129.837 26.5292L127.6 25.89L127.325 26.8515L129.563 27.4907L129.837 26.5292ZM127.601 25.8902C126.232 25.4967 125.183 24.9445 124.427 24.2528L123.752 24.9908C124.652 25.8142 125.853 26.4281 127.325 26.8513L127.601 25.8902ZM124.427 24.2528C123.712 23.5992 123.346 22.7468 123.346 21.6477H122.346C122.346 22.9989 122.81 24.1293 123.752 24.9908L124.427 24.2528ZM123.346 21.6477C123.346 20.7256 123.594 19.9429 124.076 19.2783L123.267 18.6905C122.649 19.541 122.346 20.5338 122.346 21.6477H123.346ZM124.076 19.2788C124.577 18.5915 125.251 18.0526 126.114 17.6649L125.704 16.7527C124.697 17.2055 123.88 17.8502 123.268 18.6899L124.076 19.2788ZM126.115 17.6643C126.984 17.2709 127.963 17.0696 129.061 17.0696V16.0696C127.838 16.0696 126.716 16.2944 125.703 16.7533L126.115 17.6643ZM129.061 17.0696C130.172 17.0696 131.141 17.2687 131.976 17.654L132.395 16.7459C131.408 16.2907 130.293 16.0696 129.061 16.0696V17.0696ZM131.979 17.6551C132.822 18.0383 133.473 18.5555 133.95 19.2013L134.754 18.6076C134.165 17.8093 133.373 17.1901 132.393 16.7447L131.979 17.6551ZM133.951 19.2034C134.427 19.8419 134.678 20.5625 134.705 21.3798L135.704 21.3475C135.671 20.33 135.354 19.4112 134.753 18.6055L133.951 19.2034ZM135.204 20.8636H133.074V21.8636H135.204V20.8636ZM153.703 22.5V23H154.3L154.196 22.4128L153.703 22.5ZM151.502 22.5L151.012 22.6007L151.094 23H151.502V22.5ZM150.818 20.831L150.402 21.1083L150.405 21.1118L150.818 20.831ZM149.646 19.6236L149.352 20.028L149.358 20.0322L149.646 19.6236ZM148.128 18.8778L147.985 19.357L148.128 18.8778ZM143.396 19.4638L143.132 19.0393L143.131 19.0401L143.396 19.4638ZM141.275 21.9229L140.825 21.7043L140.824 21.7063L141.275 21.9229ZM141.275 29.8952L140.824 30.1119L140.825 30.1139L141.275 29.8952ZM143.396 32.3544L143.131 32.7781L143.132 32.7789L143.396 32.3544ZM148.128 32.9403L147.985 32.4611L148.128 32.9403ZM149.646 32.2035L149.937 32.6103L149.938 32.6096L149.646 32.2035ZM150.818 30.9872L150.403 30.7087L150.402 30.7099L150.818 30.9872ZM151.502 29.3182V28.8182H151.095L151.012 29.2166L151.502 29.3182ZM153.703 29.3182L154.196 29.406L154.301 28.8182H153.703V29.3182ZM152.798 31.8129L152.369 31.5566V31.5566L152.798 31.8129ZM151.164 33.6861L151.472 34.08L151.475 34.0782L151.164 33.6861ZM148.972 34.8491L148.816 34.374L148.815 34.3744L148.972 34.8491ZM142.251 34.1122L141.985 34.5357L142.251 34.1122ZM139.401 30.8807L139.849 30.6586L139.401 30.8807ZM148.972 16.9691L148.815 17.4438L148.816 17.4441L148.972 16.9691ZM151.164 18.141L150.854 18.5332L150.856 18.5349L151.164 18.141ZM152.798 20.0053L152.369 20.2616L152.369 20.2631L152.798 20.0053ZM153.703 22H151.502V23H153.703V22ZM151.992 22.3993C151.85 21.709 151.598 21.0899 151.232 20.5501L150.405 21.1118C150.689 21.5308 150.894 22.0244 151.012 22.6007L151.992 22.3993ZM151.234 20.5536C150.881 20.024 150.447 19.5767 149.934 19.215L149.358 20.0322C149.768 20.3215 150.116 20.6791 150.402 21.1083L151.234 20.5536ZM149.94 19.2192C149.437 18.8534 148.88 18.5801 148.271 18.3986L147.985 19.357C148.489 19.5071 148.944 19.7309 149.352 20.0279L149.94 19.2192ZM148.271 18.3986C147.666 18.2186 147.038 18.1293 146.388 18.1293V19.1293C146.945 19.1293 147.477 19.2057 147.985 19.357L148.271 18.3986ZM146.388 18.1293C145.198 18.1293 144.109 18.4313 143.132 19.0393L143.661 19.8883C144.471 19.3836 145.376 19.1293 146.388 19.1293V18.1293ZM143.131 19.0401C142.152 19.6533 141.386 20.5498 140.825 21.7043L141.724 22.1416C142.216 21.1299 142.865 20.387 143.662 19.8875L143.131 19.0401ZM140.824 21.7063C140.262 22.8745 139.993 24.282 139.993 25.9091H140.993C140.993 24.3875 141.245 23.1375 141.725 22.1396L140.824 21.7063ZM139.993 25.9091C139.993 27.5361 140.262 28.9436 140.824 30.1119L141.725 29.6786C141.245 28.6806 140.993 27.4307 140.993 25.9091H139.993ZM140.825 30.1139C141.386 31.2684 142.152 32.1649 143.131 32.7781L143.662 31.9307C142.865 31.4312 142.216 30.6883 141.724 29.6766L140.825 30.1139ZM143.132 32.7789C144.109 33.3869 145.198 33.6889 146.388 33.6889V32.6889C145.376 32.6889 144.471 32.4346 143.661 31.9299L143.132 32.7789ZM146.388 33.6889C147.038 33.6889 147.666 33.5996 148.271 33.4195L147.985 32.4611C147.477 32.6125 146.945 32.6889 146.388 32.6889V33.6889ZM148.271 33.4195C148.878 33.2386 149.435 32.9691 149.937 32.6103L149.356 31.7966C148.947 32.0889 148.491 32.3106 147.985 32.4611L148.271 33.4195ZM149.938 32.6096C150.449 32.2426 150.882 31.7933 151.234 31.2646L150.402 30.7099C150.115 31.1399 149.767 31.5015 149.355 31.7973L149.938 32.6096ZM151.233 31.2657C151.598 30.7218 151.849 30.1043 151.991 29.4198L151.012 29.2166C150.894 29.7868 150.689 30.282 150.403 30.7087L151.233 31.2657ZM151.502 29.8182H153.703V28.8182H151.502V29.8182ZM153.211 29.2304C153.055 30.1063 152.773 30.8798 152.369 31.5566L153.227 32.0691C153.699 31.2782 154.02 30.3885 154.196 29.406L153.211 29.2304ZM152.369 31.5566C151.961 32.2399 151.456 32.8178 150.854 33.2939L151.475 34.0782C152.175 33.5245 152.759 32.8536 153.227 32.0691L152.369 31.5566ZM150.856 33.2922C150.252 33.7644 149.573 34.1252 148.816 34.374L149.128 35.3241C149.992 35.0403 150.774 34.6258 151.472 34.08L150.856 33.2922ZM148.815 34.3744C148.064 34.6226 147.257 34.7486 146.388 34.7486V35.7486C147.355 35.7486 148.269 35.6082 149.129 35.3238L148.815 34.3744ZM146.388 34.7486C144.923 34.7486 143.638 34.3919 142.517 33.6887L141.985 34.5357C143.279 35.3477 144.752 35.7486 146.388 35.7486V34.7486ZM142.517 33.6887C141.395 32.9847 140.505 31.9807 139.849 30.6586L138.953 31.1028C139.683 32.5742 140.693 33.7246 141.985 34.5357L142.517 33.6887ZM139.849 30.6586C139.198 29.3449 138.863 27.767 138.863 25.9091H137.863C137.863 27.8864 138.22 29.6229 138.953 31.1028L139.849 30.6586ZM138.863 25.9091C138.863 24.0511 139.198 22.4733 139.849 21.1596L138.953 20.7154C138.22 22.1953 137.863 23.9318 137.863 25.9091H138.863ZM139.849 21.1596C140.505 19.8375 141.395 18.8335 142.517 18.1295L141.985 17.2824C140.693 18.0936 139.683 19.244 138.953 20.7154L139.849 21.1596ZM142.517 18.1295C143.638 17.4263 144.923 17.0696 146.388 17.0696V16.0696C144.752 16.0696 143.279 16.4705 141.985 17.2824L142.517 18.1295ZM146.388 17.0696C147.257 17.0696 148.064 17.1955 148.815 17.4438L149.129 16.4944C148.269 16.21 147.355 16.0696 146.388 16.0696V17.0696ZM148.816 17.4441C149.572 17.6927 150.251 18.0557 150.854 18.5331L151.475 17.7488C150.776 17.1964 149.993 16.7782 149.128 16.4941L148.816 17.4441ZM150.856 18.5349C151.457 19.0046 151.961 19.5788 152.369 20.2616L153.227 19.7491C152.759 18.964 152.174 18.2954 151.472 17.7471L150.856 18.5349ZM152.369 20.2631C152.772 20.9328 153.055 21.7053 153.211 22.5872L154.196 22.4128C154.021 21.4244 153.699 20.5338 153.226 19.7476L152.369 20.2631ZM171.892 22.5V23H172.488L172.384 22.4128L171.892 22.5ZM169.69 22.5L169.201 22.6007L169.283 23H169.69V22.5ZM169.007 20.831L168.591 21.1083L168.593 21.1118L169.007 20.831ZM167.835 19.6236L167.541 20.028L167.547 20.0322L167.835 19.6236ZM166.317 18.8778L166.174 19.357L166.317 18.8778ZM161.585 19.4638L161.321 19.0393L161.319 19.0401L161.585 19.4638ZM159.463 21.9229L159.013 21.7043L159.012 21.7063L159.463 21.9229ZM159.463 29.8952L159.012 30.1119L159.013 30.1139L159.463 29.8952ZM161.585 32.3544L161.319 32.7781L161.321 32.7789L161.585 32.3544ZM166.317 32.9403L166.174 32.4611L166.317 32.9403ZM167.835 32.2035L168.125 32.6103L168.126 32.6096L167.835 32.2035ZM169.007 30.9872L168.591 30.7087L168.591 30.7099L169.007 30.9872ZM169.69 29.3182V28.8182H169.283L169.201 29.2166L169.69 29.3182ZM171.892 29.3182L172.384 29.406L172.489 28.8182H171.892V29.3182ZM170.986 31.8129L170.557 31.5566V31.5566L170.986 31.8129ZM169.353 33.6861L169.661 34.08L169.663 34.0782L169.353 33.6861ZM167.16 34.8491L167.004 34.374L167.003 34.3744L167.16 34.8491ZM160.44 34.1122L160.174 34.5357L160.44 34.1122ZM157.59 30.8807L158.038 30.6586L157.59 30.8807ZM167.16 16.9691L167.003 17.4438L167.004 17.4441L167.16 16.9691ZM169.353 18.141L169.043 18.5332L169.045 18.5349L169.353 18.141ZM170.986 20.0053L170.557 20.2616L170.558 20.2631L170.986 20.0053ZM171.892 22H169.69V23H171.892V22ZM170.18 22.3993C170.038 21.709 169.787 21.0899 169.42 20.5501L168.593 21.1118C168.877 21.5308 169.082 22.0244 169.201 22.6007L170.18 22.3993ZM169.423 20.5536C169.07 20.024 168.636 19.5767 168.123 19.215L167.547 20.0322C167.957 20.3215 168.305 20.6791 168.591 21.1083L169.423 20.5536ZM168.129 19.2192C167.626 18.8534 167.068 18.5801 166.459 18.3986L166.174 19.357C166.678 19.5071 167.132 19.7309 167.541 20.0279L168.129 19.2192ZM166.459 18.3986C165.855 18.2186 165.227 18.1293 164.577 18.1293V19.1293C165.134 19.1293 165.666 19.2057 166.174 19.357L166.459 18.3986ZM164.577 18.1293C163.387 18.1293 162.297 18.4313 161.321 19.0393L161.849 19.8883C162.66 19.3836 163.565 19.1293 164.577 19.1293V18.1293ZM161.319 19.0401C160.341 19.6533 159.575 20.5498 159.013 21.7043L159.913 22.1416C160.405 21.1299 161.053 20.387 161.85 19.8875L161.319 19.0401ZM159.012 21.7063C158.451 22.8745 158.182 24.282 158.182 25.9091H159.182C159.182 24.3875 159.434 23.1375 159.914 22.1396L159.012 21.7063ZM158.182 25.9091C158.182 27.5361 158.451 28.9436 159.012 30.1119L159.914 29.6786C159.434 28.6806 159.182 27.4307 159.182 25.9091H158.182ZM159.013 30.1139C159.575 31.2684 160.341 32.1649 161.319 32.7781L161.85 31.9307C161.053 31.4312 160.405 30.6883 159.913 29.6766L159.013 30.1139ZM161.321 32.7789C162.297 33.3869 163.387 33.6889 164.577 33.6889V32.6889C163.565 32.6889 162.66 32.4346 161.849 31.9299L161.321 32.7789ZM164.577 33.6889C165.227 33.6889 165.855 33.5996 166.459 33.4195L166.174 32.4611C165.666 32.6125 165.134 32.6889 164.577 32.6889V33.6889ZM166.459 33.4195C167.067 33.2386 167.623 32.9691 168.125 32.6103L167.544 31.7966C167.135 32.0889 166.679 32.3106 166.174 32.4611L166.459 33.4195ZM168.126 32.6096C168.638 32.2426 169.07 31.7933 169.423 31.2646L168.591 30.7099C168.304 31.1399 167.955 31.5015 167.543 31.7973L168.126 32.6096ZM169.422 31.2657C169.787 30.7218 170.038 30.1043 170.18 29.4198L169.201 29.2166C169.082 29.7868 168.878 30.282 168.591 30.7087L169.422 31.2657ZM169.69 29.8182H171.892V28.8182H169.69V29.8182ZM171.4 29.2304C171.244 30.1063 170.961 30.8798 170.557 31.5566L171.416 32.0691C171.888 31.2782 172.209 30.3885 172.384 29.406L171.4 29.2304ZM170.557 31.5566C170.149 32.2399 169.645 32.8178 169.043 33.2939L169.663 34.0782C170.363 33.5245 170.948 32.8536 171.416 32.0691L170.557 31.5566ZM169.045 33.2922C168.441 33.7644 167.762 34.1252 167.004 34.374L167.316 35.3241C168.18 35.0403 168.963 34.6258 169.661 34.08L169.045 33.2922ZM167.003 34.3744C166.253 34.6226 165.445 34.7486 164.577 34.7486V35.7486C165.543 35.7486 166.458 35.6082 167.317 35.3238L167.003 34.3744ZM164.577 34.7486C163.111 34.7486 161.826 34.3919 160.705 33.6887L160.174 34.5357C161.468 35.3477 162.941 35.7486 164.577 35.7486V34.7486ZM160.705 33.6887C159.583 32.9847 158.693 31.9807 158.038 30.6586L157.142 31.1028C157.871 32.5742 158.881 33.7246 160.174 34.5357L160.705 33.6887ZM158.038 30.6586C157.386 29.3449 157.051 27.767 157.051 25.9091H156.051C156.051 27.8864 156.408 29.6229 157.142 31.1028L158.038 30.6586ZM157.051 25.9091C157.051 24.0511 157.386 22.4733 158.038 21.1596L157.142 20.7154C156.408 22.1953 156.051 23.9318 156.051 25.9091H157.051ZM158.038 21.1596C158.693 19.8375 159.583 18.8335 160.705 18.1295L160.174 17.2824C158.881 18.0936 157.871 19.244 157.142 20.7154L158.038 21.1596ZM160.705 18.1295C161.826 17.4263 163.111 17.0696 164.577 17.0696V16.0696C162.941 16.0696 161.468 16.4705 160.174 17.2824L160.705 18.1295ZM164.577 17.0696C165.445 17.0696 166.253 17.1955 167.003 17.4438L167.317 16.4944C166.458 16.21 165.543 16.0696 164.577 16.0696V17.0696ZM167.004 17.4441C167.761 17.6927 168.439 18.0557 169.043 18.5331L169.663 17.7488C168.965 17.1964 168.181 16.7782 167.316 16.4941L167.004 17.4441ZM169.045 18.5349C169.646 19.0046 170.15 19.5788 170.557 20.2616L171.416 19.7491C170.947 18.964 170.362 18.2954 169.661 17.7471L169.045 18.5349ZM170.558 20.2631C170.961 20.9328 171.243 21.7053 171.4 22.5872L172.384 22.4128C172.209 21.4244 171.888 20.5338 171.415 19.7476L170.558 20.2631ZM175.45 35H174.95V35.5H175.45V35ZM175.45 16.8182V16.3182H174.95V16.8182H175.45ZM185.091 17.5906L184.844 18.0252L184.847 18.0271L185.091 17.5906ZM187.115 19.6591L186.669 19.8839L187.115 19.6591ZM187.115 25.4918L186.668 25.2682L186.667 25.2707L187.115 25.4918ZM185.109 27.587L185.356 28.0217L185.358 28.0204L185.109 27.587ZM177.225 28.3594H176.725V28.8594H177.225V28.3594ZM177.225 26.4062V25.9062H176.725V26.4062H177.225ZM183.91 25.9002L183.663 25.4658L183.91 25.9002ZM185.198 24.533L184.745 24.3206L184.744 24.3226L185.198 24.533ZM185.198 20.6179L184.744 20.8283L184.746 20.8321L185.198 20.6179ZM183.901 19.2685L183.659 19.7058L183.662 19.7076L183.901 19.2685ZM177.651 18.7713V18.2713H177.151V18.7713H177.651ZM177.651 35V35.5H178.151V35H177.651ZM175.95 35V16.8182H174.95V35H175.95ZM175.45 17.3182H181.593V16.3182H175.45V17.3182ZM181.593 17.3182C182.964 17.3182 184.036 17.5661 184.844 18.0252L185.338 17.1559C184.335 16.5852 183.076 16.3182 181.593 16.3182V17.3182ZM184.847 18.0271C185.678 18.491 186.279 19.1096 186.669 19.8839L187.562 19.4343C187.076 18.4685 186.327 17.7081 185.335 17.154L184.847 18.0271ZM186.669 19.8839C187.068 20.6775 187.272 21.5699 187.272 22.571H188.272C188.272 21.4296 188.038 20.3808 187.562 19.4343L186.669 19.8839ZM187.272 22.571C187.272 23.5721 187.068 24.468 186.668 25.2682L187.562 25.7154C188.038 24.7637 188.272 23.7125 188.272 22.571H187.272ZM186.667 25.2707C186.282 26.0514 185.685 26.6786 184.86 27.1536L185.358 28.0204C186.343 27.4538 187.085 26.6842 187.564 25.713L186.667 25.2707ZM184.862 27.1524C184.054 27.6118 182.986 27.8594 181.629 27.8594V28.8594C183.1 28.8594 184.353 28.592 185.356 28.0216L184.862 27.1524ZM181.629 27.8594H177.225V28.8594H181.629V27.8594ZM177.725 28.3594V26.4062H176.725V28.3594H177.725ZM177.225 26.9062H181.558V25.9062H177.225V26.9062ZM181.558 26.9062C182.586 26.9062 183.465 26.7296 184.158 26.3346L183.663 25.4658C183.172 25.7455 182.483 25.9062 181.558 25.9062V26.9062ZM184.158 26.3346C184.833 25.9499 185.338 25.4191 185.651 24.7434L184.744 24.3226C184.525 24.7951 184.172 25.1758 183.663 25.4658L184.158 26.3346ZM185.65 24.7455C185.958 24.0905 186.106 23.3624 186.106 22.571H185.106C185.106 23.2356 184.982 23.8155 184.745 24.3206L185.65 24.7455ZM186.106 22.571C186.106 21.7797 185.958 21.0538 185.649 20.4037L184.746 20.8321C184.982 21.3302 185.106 21.9063 185.106 22.571H186.106ZM185.651 20.4075C185.336 19.7286 184.825 19.202 184.141 18.8294L183.662 19.7076C184.173 19.9859 184.526 20.359 184.744 20.8283L185.651 20.4075ZM184.144 18.8312C183.446 18.4443 182.56 18.2713 181.522 18.2713V19.2713C182.461 19.2713 183.161 19.4297 183.659 19.7057L184.144 18.8312ZM181.522 18.2713H177.651V19.2713H181.522V18.2713ZM177.151 18.7713V35H178.151V18.7713H177.151ZM177.651 34.5H175.45V35.5H177.651V34.5Z" fill="black" mask="url(#path-2-outside-1_6_4)"/>
</svg>
